<?xml version="1.0" encoding="UTF-8"?><svg xmlns="http://www.w3.org/2000/svg" xmlns:xlink="http://www.w3.org/1999/xlink" fill-opacity="1" color-rendering="auto" color-interpolation="auto" text-rendering="auto" stroke="black" stroke-linecap="square" width="760" stroke-miterlimit="10" shape-rendering="auto" stroke-opacity="1" fill="black" stroke-dasharray="none" font-weight="normal" stroke-width="1" height="348" font-family="'Dialog'" font-style="normal" stroke-linejoin="miter" font-size="12px" stroke-dashoffset="0" image-rendering="auto">
  <!--Generated by ySVG 2.6-->
  <defs id="genericDefs"/>
  <g>
    <defs id="defs1">
      <clipPath clipPathUnits="userSpaceOnUse" id="clipPath1">
        <path d="M0 0 L760 0 L760 348 L0 348 L0 0 Z"/>
      </clipPath>
      <clipPath clipPathUnits="userSpaceOnUse" id="clipPath2">
        <path d="M-38 230 L722 230 L722 578 L-38 578 L-38 230 Z"/>
      </clipPath>
    </defs>
    <g fill="white" text-rendering="geometricPrecision" shape-rendering="geometricPrecision" transform="translate(38,-230)" stroke="white">
      <rect x="-38" width="760" height="348" y="230" clip-path="url(#clipPath2)" stroke="none"/>
    </g>
    <g fill="rgb(106,176,222)" text-rendering="geometricPrecision" shape-rendering="geometricPrecision" transform="matrix(1,0,0,1,38,-230)" stroke="rgb(106,176,222)">
      <rect x="403.25" width="303.5" height="40" y="292.5" clip-path="url(#clipPath2)" stroke="none"/>
    </g>
    <g text-rendering="geometricPrecision" stroke-miterlimit="1.45" shape-rendering="geometricPrecision" transform="matrix(1,0,0,1,38,-230)" stroke-linecap="butt">
      <rect fill="none" x="403.25" width="303.5" height="40" y="292.5" clip-path="url(#clipPath2)"/>
    </g>
    <g fill="rgb(106,176,222)" text-rendering="geometricPrecision" shape-rendering="geometricPrecision" transform="matrix(1,0,0,1,38,-230)" stroke="rgb(106,176,222)">
      <rect x="403.25" width="303.5" height="40" y="468" clip-path="url(#clipPath2)" stroke="none"/>
    </g>
    <g text-rendering="geometricPrecision" stroke-miterlimit="1.45" shape-rendering="geometricPrecision" transform="matrix(1,0,0,1,38,-230)" stroke-linecap="butt">
      <rect fill="none" x="403.25" width="303.5" height="40" y="468" clip-path="url(#clipPath2)"/>
    </g>
    <g fill="rgb(106,176,222)" text-rendering="geometricPrecision" shape-rendering="geometricPrecision" transform="matrix(1,0,0,1,38,-230)" stroke="rgb(106,176,222)">
      <rect x="-23" width="318" height="40" y="299" clip-path="url(#clipPath2)" stroke="none"/>
    </g>
    <g text-rendering="geometricPrecision" stroke-miterlimit="1.45" shape-rendering="geometricPrecision" transform="matrix(1,0,0,1,38,-230)" stroke-linecap="butt">
      <rect fill="none" x="-23" width="318" height="40" y="299" clip-path="url(#clipPath2)"/>
      <text x="83.7527" font-size="16px" y="323.8799" clip-path="url(#clipPath2)" font-family="'Lato'" stroke="none" xml:space="preserve">Compute node</text>
    </g>
    <g fill="rgb(231,242,250)" text-rendering="geometricPrecision" shape-rendering="geometricPrecision" transform="matrix(1,0,0,1,38,-230)" stroke="rgb(231,242,250)">
      <rect x="-23" width="144" height="40" y="369" clip-path="url(#clipPath2)" stroke="none"/>
    </g>
    <g text-rendering="geometricPrecision" stroke-miterlimit="1.45" shape-rendering="geometricPrecision" transform="matrix(1,0,0,1,38,-230)" stroke-linecap="butt">
      <rect fill="none" x="-23" width="144" height="40" y="369" clip-path="url(#clipPath2)"/>
      <text x="0.9086" font-size="16px" y="393.8799" clip-path="url(#clipPath2)" font-family="'Lato'" stroke="none" xml:space="preserve">User program</text>
    </g>
    <g fill="rgb(106,176,222)" text-rendering="geometricPrecision" shape-rendering="geometricPrecision" transform="matrix(1,0,0,1,38,-230)" stroke="rgb(106,176,222)">
      <rect x="390" width="303.5" height="40" y="275.5" clip-path="url(#clipPath2)" stroke="none"/>
    </g>
    <g text-rendering="geometricPrecision" stroke-miterlimit="1.45" shape-rendering="geometricPrecision" transform="matrix(1,0,0,1,38,-230)" stroke-linecap="butt">
      <rect fill="none" x="390" width="303.5" height="40" y="275.5" clip-path="url(#clipPath2)"/>
      <text x="480.5788" font-size="16px" y="300.3799" clip-path="url(#clipPath2)" font-family="'Lato'" stroke="none" xml:space="preserve">Metadata servers</text>
    </g>
    <g fill="rgb(231,242,250)" text-rendering="geometricPrecision" shape-rendering="geometricPrecision" transform="matrix(1,0,0,1,38,-230)" stroke="rgb(231,242,250)">
      <rect x="151" width="144" height="40" y="369" clip-path="url(#clipPath2)" stroke="none"/>
    </g>
    <g text-rendering="geometricPrecision" stroke-miterlimit="1.45" shape-rendering="geometricPrecision" transform="matrix(1,0,0,1,38,-230)" stroke-linecap="butt">
      <rect fill="none" x="151" width="144" height="40" y="369" clip-path="url(#clipPath2)"/>
      <text x="164.4887" font-size="16px" y="393.8799" clip-path="url(#clipPath2)" font-family="'Lato'" stroke="none" xml:space="preserve">Filesystem client</text>
    </g>
    <g fill="rgb(106,176,222)" text-rendering="geometricPrecision" shape-rendering="geometricPrecision" transform="matrix(1,0,0,1,38,-230)" stroke="rgb(106,176,222)">
      <rect x="390" width="303.5" height="40" y="453" clip-path="url(#clipPath2)" stroke="none"/>
    </g>
    <g text-rendering="geometricPrecision" stroke-miterlimit="1.45" shape-rendering="geometricPrecision" transform="matrix(1,0,0,1,38,-230)" stroke-linecap="butt">
      <rect fill="none" x="390" width="303.5" height="40" y="453" clip-path="url(#clipPath2)"/>
      <text x="462.471" font-size="16px" y="477.8799" clip-path="url(#clipPath2)" font-family="'Lato'" stroke="none" xml:space="preserve">Object storage servers</text>
    </g>
    <g fill="rgb(231,242,250)" text-rendering="geometricPrecision" shape-rendering="geometricPrecision" transform="matrix(1,0,0,1,38,-230)" stroke="rgb(231,242,250)">
      <rect x="390" width="92.5" height="40" y="345.5" clip-path="url(#clipPath2)" stroke="none"/>
    </g>
    <g text-rendering="geometricPrecision" stroke-miterlimit="1.45" shape-rendering="geometricPrecision" transform="matrix(1,0,0,1,38,-230)" stroke-linecap="butt">
      <rect fill="none" x="390" width="92.5" height="40" y="345.5" clip-path="url(#clipPath2)"/>
      <text x="417.2542" font-size="16px" y="370.3799" clip-path="url(#clipPath2)" font-family="'Lato'" stroke="none" xml:space="preserve">Disks</text>
    </g>
    <g fill="rgb(231,242,250)" text-rendering="geometricPrecision" shape-rendering="geometricPrecision" transform="matrix(1,0,0,1,38,-230)" stroke="rgb(231,242,250)">
      <rect x="495.5" width="92.5" height="40" y="345.5" clip-path="url(#clipPath2)" stroke="none"/>
    </g>
    <g text-rendering="geometricPrecision" stroke-miterlimit="1.45" shape-rendering="geometricPrecision" transform="matrix(1,0,0,1,38,-230)" stroke-linecap="butt">
      <rect fill="none" x="495.5" width="92.5" height="40" y="345.5" clip-path="url(#clipPath2)"/>
      <text x="520.7062" font-size="16px" y="370.3799" clip-path="url(#clipPath2)" font-family="'Lato'" stroke="none" xml:space="preserve">Disks </text>
    </g>
    <g fill="rgb(231,242,250)" text-rendering="geometricPrecision" shape-rendering="geometricPrecision" transform="matrix(1,0,0,1,38,-230)" stroke="rgb(231,242,250)">
      <rect x="601" width="92.5" height="40" y="345.5" clip-path="url(#clipPath2)" stroke="none"/>
    </g>
    <g text-rendering="geometricPrecision" stroke-miterlimit="1.45" shape-rendering="geometricPrecision" transform="matrix(1,0,0,1,38,-230)" stroke-linecap="butt">
      <rect fill="none" x="601" width="92.5" height="40" y="345.5" clip-path="url(#clipPath2)"/>
      <text x="626.2062" font-size="16px" y="370.3799" clip-path="url(#clipPath2)" font-family="'Lato'" stroke="none" xml:space="preserve">Disks </text>
    </g>
    <g fill="rgb(231,242,250)" text-rendering="geometricPrecision" shape-rendering="geometricPrecision" transform="matrix(1,0,0,1,38,-230)" stroke="rgb(231,242,250)">
      <rect x="390" width="92.5" height="40" y="523" clip-path="url(#clipPath2)" stroke="none"/>
    </g>
    <g text-rendering="geometricPrecision" stroke-miterlimit="1.45" shape-rendering="geometricPrecision" transform="matrix(1,0,0,1,38,-230)" stroke-linecap="butt">
      <rect fill="none" x="390" width="92.5" height="40" y="523" clip-path="url(#clipPath2)"/>
      <text x="417.2542" font-size="16px" y="547.8799" clip-path="url(#clipPath2)" font-family="'Lato'" stroke="none" xml:space="preserve">Disks</text>
    </g>
    <g fill="rgb(231,242,250)" text-rendering="geometricPrecision" shape-rendering="geometricPrecision" transform="matrix(1,0,0,1,38,-230)" stroke="rgb(231,242,250)">
      <rect x="495.5" width="92.5" height="40" y="523" clip-path="url(#clipPath2)" stroke="none"/>
    </g>
    <g text-rendering="geometricPrecision" stroke-miterlimit="1.45" shape-rendering="geometricPrecision" transform="matrix(1,0,0,1,38,-230)" stroke-linecap="butt">
      <rect fill="none" x="495.5" width="92.5" height="40" y="523" clip-path="url(#clipPath2)"/>
      <text x="520.7062" font-size="16px" y="547.8799" clip-path="url(#clipPath2)" font-family="'Lato'" stroke="none" xml:space="preserve">Disks </text>
    </g>
    <g fill="rgb(231,242,250)" text-rendering="geometricPrecision" shape-rendering="geometricPrecision" transform="matrix(1,0,0,1,38,-230)" stroke="rgb(231,242,250)">
      <rect x="601" width="92.5" height="40" y="523" clip-path="url(#clipPath2)" stroke="none"/>
    </g>
    <g text-rendering="geometricPrecision" stroke-miterlimit="1.45" shape-rendering="geometricPrecision" transform="matrix(1,0,0,1,38,-230)" stroke-linecap="butt">
      <rect fill="none" x="601" width="92.5" height="40" y="523" clip-path="url(#clipPath2)"/>
      <text x="626.2062" font-size="16px" y="547.8799" clip-path="url(#clipPath2)" font-family="'Lato'" stroke="none" xml:space="preserve">Disks </text>
      <text x="243.4686" font-size="16px" y="269.8799" clip-path="url(#clipPath2)" font-family="'Lato'" stroke="none" xml:space="preserve">metadata calls</text>
      <text x="230.2887" font-size="16px" y="477.8799" clip-path="url(#clipPath2)" font-family="'Lato'" stroke="none" xml:space="preserve">file content calls</text>
      <path fill="none" d="M121 389 L143 389" clip-path="url(#clipPath2)"/>
      <path d="M151 389 L139 384 L142 389 L139 394 Z" clip-path="url(#clipPath2)" stroke="none"/>
      <path fill="none" d="M295 389 L384.2751 301.1345" clip-path="url(#clipPath2)"/>
      <path d="M389.9768 295.5228 L377.917 300.3768 L383.5624 301.8359 L384.9315 307.5039 Z" clip-path="url(#clipPath2)" stroke="none"/>
      <path fill="none" d="M295 389 L383.9836 467.6803" clip-path="url(#clipPath2)"/>
      <path d="M389.9768 472.9795 L384.2991 461.2849 L383.2345 467.0179 L377.675 468.7764 Z" clip-path="url(#clipPath2)" stroke="none"/>
      <path fill="none" d="M511.6071 315.5 L473.059 341.077" clip-path="url(#clipPath2)"/>
      <path d="M466.3929 345.5 L479.1564 343.0318 L473.8922 340.5241 L473.6276 334.6992 Z" clip-path="url(#clipPath2)" stroke="none"/>
      <path fill="none" d="M541.75 493 L541.75 515" clip-path="url(#clipPath2)"/>
      <path d="M541.75 523 L546.75 511 L541.75 514 L536.75 511 Z" clip-path="url(#clipPath2)" stroke="none"/>
    </g>
  </g>
</svg>
