<?xml version="1.0" encoding="UTF-8"?><svg xmlns="http://www.w3.org/2000/svg" xmlns:xlink="http://www.w3.org/1999/xlink" fill-opacity="1" color-rendering="auto" color-interpolation="auto" text-rendering="auto" stroke="black" stroke-linecap="square" width="459" stroke-miterlimit="10" shape-rendering="auto" stroke-opacity="1" fill="black" stroke-dasharray="none" font-weight="normal" stroke-width="1" height="140" font-family="'Dialog'" font-style="normal" stroke-linejoin="miter" font-size="12px" stroke-dashoffset="0" image-rendering="auto">
  <!--Generated by ySVG 2.6-->
  <defs id="genericDefs"/>
  <g>
    <defs id="defs1">
      <clipPath clipPathUnits="userSpaceOnUse" id="clipPath1">
        <path d="M0 0 L459 0 L459 140 L0 140 L0 0 Z"/>
      </clipPath>
      <clipPath clipPathUnits="userSpaceOnUse" id="clipPath2">
        <path d="M248 278 L707 278 L707 418 L248 418 L248 278 Z"/>
      </clipPath>
    </defs>
    <g fill="white" text-rendering="geometricPrecision" shape-rendering="geometricPrecision" transform="translate(-248,-278)" stroke="white">
      <rect x="248" width="459" height="140" y="278" clip-path="url(#clipPath2)" stroke="none"/>
    </g>
    <g fill="rgb(231,242,250)" text-rendering="geometricPrecision" shape-rendering="geometricPrecision" transform="matrix(1,0,0,1,-248,-278)" stroke="rgb(231,242,250)">
      <rect x="263" width="86" height="40" y="363" clip-path="url(#clipPath2)" stroke="none"/>
    </g>
    <g text-rendering="geometricPrecision" stroke-miterlimit="1.45" shape-rendering="geometricPrecision" transform="matrix(1,0,0,1,-248,-278)" stroke-linecap="butt">
      <rect fill="none" x="263" width="86" height="40" y="363" clip-path="url(#clipPath2)"/>
      <text x="272.2044" font-size="16px" y="387.8799" clip-path="url(#clipPath2)" font-family="'Lato'" stroke="none" xml:space="preserve">Metadata</text>
    </g>
    <g fill="rgb(231,242,250)" text-rendering="geometricPrecision" shape-rendering="geometricPrecision" transform="matrix(1,0,0,1,-248,-278)" stroke="rgb(231,242,250)">
      <rect x="379" width="313" height="40" y="363" clip-path="url(#clipPath2)" stroke="none"/>
    </g>
    <g text-rendering="geometricPrecision" stroke-miterlimit="1.45" shape-rendering="geometricPrecision" transform="matrix(1,0,0,1,-248,-278)" stroke-linecap="butt">
      <rect fill="none" x="379" width="313" height="40" y="363" clip-path="url(#clipPath2)"/>
      <text x="490.1886" font-size="16px" y="387.8799" clip-path="url(#clipPath2)" font-family="'Lato'" stroke="none" xml:space="preserve">File contents</text>
      <text x="358.9727" xml:space="preserve" y="387.1543" clip-path="url(#clipPath2)" font-family="sans-serif" stroke="none">+</text>
      <text x="517.4971" font-size="20px" y="318.3223" clip-path="url(#clipPath2)" font-family="'Courier New'" stroke="none" font-weight="bold" xml:space="preserve">cat</text>
      <text x="275.9951" font-size="20px" y="318.3223" clip-path="url(#clipPath2)" font-family="'Courier New'" stroke="none" font-weight="bold" xml:space="preserve">ls -l</text>
      <path fill="none" d="M535.5 333 L535.5 355" clip-path="url(#clipPath2)"/>
      <path d="M535.5 363 L540.5 351 L535.5 354 L530.5 351 Z" clip-path="url(#clipPath2)" stroke="none"/>
      <path fill="none" d="M306 333 L306 355" clip-path="url(#clipPath2)"/>
      <path d="M306 363 L311 351 L306 354 L301 351 Z" clip-path="url(#clipPath2)" stroke="none"/>
    </g>
  </g>
</svg>
