<?xml version="1.0" encoding="UTF-8"?><svg xmlns="http://www.w3.org/2000/svg" xmlns:xlink="http://www.w3.org/1999/xlink" fill-opacity="1" color-rendering="auto" color-interpolation="auto" text-rendering="auto" stroke="black" stroke-linecap="square" width="459" stroke-miterlimit="10" shape-rendering="auto" stroke-opacity="1" fill="black" stroke-dasharray="none" font-weight="normal" stroke-width="1" height="132" font-family="'Dialog'" font-style="normal" stroke-linejoin="miter" font-size="12px" stroke-dashoffset="0" image-rendering="auto">
  <!--Generated by ySVG 2.6-->
  <defs id="genericDefs"/>
  <g>
    <defs id="defs1">
      <clipPath clipPathUnits="userSpaceOnUse" id="clipPath1">
        <path d="M0 0 L459 0 L459 132 L0 132 L0 0 Z"/>
      </clipPath>
      <clipPath clipPathUnits="userSpaceOnUse" id="clipPath2">
        <path d="M248 286 L707 286 L707 418 L248 418 L248 286 Z"/>
      </clipPath>
    </defs>
    <g fill="white" text-rendering="geometricPrecision" shape-rendering="geometricPrecision" transform="translate(-248,-286)" stroke="white">
      <rect x="248" width="459" height="132" y="286" clip-path="url(#clipPath2)" stroke="none"/>
    </g>
    <g fill="rgb(106,176,222)" text-rendering="geometricPrecision" shape-rendering="geometricPrecision" transform="matrix(1,0,0,1,-248,-286)" stroke="rgb(106,176,222)">
      <rect x="263" width="429" height="40" y="301" clip-path="url(#clipPath2)" stroke="none"/>
    </g>
    <g text-rendering="geometricPrecision" stroke-miterlimit="1.45" shape-rendering="geometricPrecision" transform="matrix(1,0,0,1,-248,-286)" stroke-linecap="butt">
      <rect fill="none" x="263" width="429" height="40" y="301" clip-path="url(#clipPath2)"/>
      <text x="464.9442" font-size="16px" y="325.8799" clip-path="url(#clipPath2)" font-family="'Lato'" stroke="none" xml:space="preserve">File</text>
    </g>
    <g fill="rgb(231,242,250)" text-rendering="geometricPrecision" shape-rendering="geometricPrecision" transform="matrix(1,0,0,1,-248,-286)" stroke="rgb(231,242,250)">
      <rect x="263" width="86" height="40" y="363" clip-path="url(#clipPath2)" stroke="none"/>
    </g>
    <g text-rendering="geometricPrecision" stroke-miterlimit="1.45" shape-rendering="geometricPrecision" transform="matrix(1,0,0,1,-248,-286)" stroke-linecap="butt">
      <rect fill="none" x="263" width="86" height="40" y="363" clip-path="url(#clipPath2)"/>
      <text x="272.2044" font-size="16px" y="387.8799" clip-path="url(#clipPath2)" font-family="'Lato'" stroke="none" xml:space="preserve">Metadata</text>
    </g>
    <g fill="rgb(231,242,250)" text-rendering="geometricPrecision" shape-rendering="geometricPrecision" transform="matrix(1,0,0,1,-248,-286)" stroke="rgb(231,242,250)">
      <rect x="379" width="313" height="40" y="363" clip-path="url(#clipPath2)" stroke="none"/>
    </g>
    <g text-rendering="geometricPrecision" stroke-miterlimit="1.45" shape-rendering="geometricPrecision" transform="matrix(1,0,0,1,-248,-286)" stroke-linecap="butt">
      <rect fill="none" x="379" width="313" height="40" y="363" clip-path="url(#clipPath2)"/>
      <text x="490.1886" font-size="16px" y="387.8799" clip-path="url(#clipPath2)" font-family="'Lato'" stroke="none" xml:space="preserve">File contents</text>
      <text x="358.9727" xml:space="preserve" y="387.1543" clip-path="url(#clipPath2)" font-family="sans-serif" stroke="none">+</text>
    </g>
  </g>
</svg>
