<?xml version="1.0" encoding="UTF-8" standalone="no"?>
<!-- Uploaded to: SVG Repo, www.svgrepo.com, Generator: SVG Repo Mixer Tools -->

<svg
   version="1.1"
   id="Layer_1"
   viewBox="0 0 608.54718 1014.127"
   xml:space="preserve"
   sodipodi:docname="scheduler.svg"
   width="161.01144mm"
   height="268.32111mm"
   inkscape:version="1.3.2 (091e20ef0f, 2023-11-25)"
   xmlns:inkscape="http://www.inkscape.org/namespaces/inkscape"
   xmlns:sodipodi="http://sodipodi.sourceforge.net/DTD/sodipodi-0.dtd"
   xmlns="http://www.w3.org/2000/svg"
   xmlns:svg="http://www.w3.org/2000/svg"><defs
   id="defs52"><marker
     style="overflow:visible"
     id="ArrowWideRounded"
     refX="0"
     refY="0"
     orient="auto-start-reverse"
     inkscape:stockid="Wide, rounded arrow"
     markerWidth="1"
     markerHeight="1"
     viewBox="0 0 1 1"
     inkscape:isstock="true"
     inkscape:collect="always"
     preserveAspectRatio="xMidYMid"><path
       style="fill:none;stroke:context-stroke;stroke-width:1;stroke-linecap:round"
       d="M 3,-3 0,0 3,3"
       transform="rotate(180,0.125,0)"
       sodipodi:nodetypes="ccc"
       id="path2" /></marker></defs><sodipodi:namedview
   id="namedview52"
   pagecolor="#ffffff"
   bordercolor="#000000"
   borderopacity="0.25"
   inkscape:showpageshadow="2"
   inkscape:pageopacity="0.0"
   inkscape:pagecheckerboard="0"
   inkscape:deskcolor="#d1d1d1"
   inkscape:zoom="0.90176038"
   inkscape:cx="289.98834"
   inkscape:cy="507.34098"
   inkscape:window-width="1583"
   inkscape:window-height="1417"
   inkscape:window-x="973"
   inkscape:window-y="0"
   inkscape:window-maximized="1"
   inkscape:current-layer="Layer_1"
   inkscape:document-units="mm" />




















































<g
   id="g135"
   transform="scale(0.28111915)"><g
     id="g57"
     transform="translate(572.46403,-33.55071)"><path
       style="fill:#e6e6e6"
       d="m 71.99606,101.81771 h -51.2 c -4.713,0 -8.533,-3.821 -8.533,-8.533 v -51.2 c 0,-4.713 3.821,-8.533 8.533,-8.533 h 51.2 c 4.713,0 8.533,3.821 8.533,8.533 v 51.2 c 0.001,4.712 -3.82,8.533 -8.533,8.533 z"
       id="path56" /><path
       style="fill:#cccccc"
       d="m 71.99606,84.75071 h -42.667 v -42.667 c 0,-4.713 3.821,-8.533 8.533,-8.533 h -17.067 c -4.713,0 -8.533,3.821 -8.533,8.533 v 34.134 17.067 c 0,4.713 3.821,8.533 8.533,8.533 h 17.068 34.133 c 4.713,0 8.533,-3.821 8.533,-8.533 v -17.067 c 0.001,4.713 -3.82,8.533 -8.533,8.533 z"
       id="path57" /></g><g
     id="g118"
     transform="translate(23.729612,-230.55063)"><g
       id="g56"
       transform="translate(-70.872692,-57.18237)"><path
         style="fill:#b169bf"
         d="m 213.333,512 h -51.2 c -4.713,0 -8.533,-3.821 -8.533,-8.533 v -51.2 c 0,-4.713 3.821,-8.533 8.533,-8.533 h 51.2 c 4.713,0 8.533,3.821 8.533,8.533 v 51.2 c 10e-4,4.712 -3.82,8.533 -8.533,8.533 z"
         id="path9" /><path
         style="fill:#844a8f"
         d="m 213.333,494.933 h -42.667 v -42.667 c 0,-4.713 3.821,-8.533 8.533,-8.533 h -17.067 c -4.713,0 -8.533,3.821 -8.533,8.533 v 34.134 17.067 c 0,4.713 3.821,8.533 8.533,8.533 h 17.068 34.133 c 4.713,0 8.533,-3.821 8.533,-8.533 V 486.4 c 10e-4,4.713 -3.82,8.533 -8.533,8.533 z"
         id="path10" /></g><g
       id="g59"
       transform="translate(-70.872692,11.08663)"><path
         style="fill:#b169bf"
         d="m 213.333,512 h -51.2 c -4.713,0 -8.533,-3.821 -8.533,-8.533 v -51.2 c 0,-4.713 3.821,-8.533 8.533,-8.533 h 51.2 c 4.713,0 8.533,3.821 8.533,8.533 v 51.2 c 10e-4,4.712 -3.82,8.533 -8.533,8.533 z"
         id="path58" /><path
         style="fill:#844a8f"
         d="m 213.333,494.933 h -42.667 v -42.667 c 0,-4.713 3.821,-8.533 8.533,-8.533 h -17.067 c -4.713,0 -8.533,3.821 -8.533,8.533 v 34.134 17.067 c 0,4.713 3.821,8.533 8.533,8.533 h 17.068 34.133 c 4.713,0 8.533,-3.821 8.533,-8.533 V 486.4 c 10e-4,4.713 -3.82,8.533 -8.533,8.533 z"
         id="path59" /></g><g
       id="g61"
       transform="translate(-70.872692,79.35563)"><path
         style="fill:#b169bf"
         d="m 213.333,512 h -51.2 c -4.713,0 -8.533,-3.821 -8.533,-8.533 v -51.2 c 0,-4.713 3.821,-8.533 8.533,-8.533 h 51.2 c 4.713,0 8.533,3.821 8.533,8.533 v 51.2 c 10e-4,4.712 -3.82,8.533 -8.533,8.533 z"
         id="path60" /><path
         style="fill:#844a8f"
         d="m 213.333,494.933 h -42.667 v -42.667 c 0,-4.713 3.821,-8.533 8.533,-8.533 h -17.067 c -4.713,0 -8.533,3.821 -8.533,8.533 v 34.134 17.067 c 0,4.713 3.821,8.533 8.533,8.533 h 17.068 34.133 c 4.713,0 8.533,-3.821 8.533,-8.533 V 486.4 c 10e-4,4.713 -3.82,8.533 -8.533,8.533 z"
         id="path61" /></g><g
       id="g63"
       transform="translate(-70.872692,147.62463)"><path
         style="fill:#b169bf"
         d="m 213.333,512 h -51.2 c -4.713,0 -8.533,-3.821 -8.533,-8.533 v -51.2 c 0,-4.713 3.821,-8.533 8.533,-8.533 h 51.2 c 4.713,0 8.533,3.821 8.533,8.533 v 51.2 c 10e-4,4.712 -3.82,8.533 -8.533,8.533 z"
         id="path62" /><path
         style="fill:#844a8f"
         d="m 213.333,494.933 h -42.667 v -42.667 c 0,-4.713 3.821,-8.533 8.533,-8.533 h -17.067 c -4.713,0 -8.533,3.821 -8.533,8.533 v 34.134 17.067 c 0,4.713 3.821,8.533 8.533,8.533 h 17.068 34.133 c 4.713,0 8.533,-3.821 8.533,-8.533 V 486.4 c 10e-4,4.713 -3.82,8.533 -8.533,8.533 z"
         id="path63" /></g><g
       id="g65"
       transform="translate(-70.872692,215.89363)"><path
         style="fill:#b169bf"
         d="m 213.333,512 h -51.2 c -4.713,0 -8.533,-3.821 -8.533,-8.533 v -51.2 c 0,-4.713 3.821,-8.533 8.533,-8.533 h 51.2 c 4.713,0 8.533,3.821 8.533,8.533 v 51.2 c 10e-4,4.712 -3.82,8.533 -8.533,8.533 z"
         id="path64" /><path
         style="fill:#844a8f"
         d="m 213.333,494.933 h -42.667 v -42.667 c 0,-4.713 3.821,-8.533 8.533,-8.533 h -17.067 c -4.713,0 -8.533,3.821 -8.533,8.533 v 34.134 17.067 c 0,4.713 3.821,8.533 8.533,8.533 h 17.068 34.133 c 4.713,0 8.533,-3.821 8.533,-8.533 V 486.4 c 10e-4,4.713 -3.82,8.533 -8.533,8.533 z"
         id="path65" /></g><g
       id="g67"
       transform="translate(-70.872692,284.16263)"><path
         style="fill:#b169bf"
         d="m 213.333,512 h -51.2 c -4.713,0 -8.533,-3.821 -8.533,-8.533 v -51.2 c 0,-4.713 3.821,-8.533 8.533,-8.533 h 51.2 c 4.713,0 8.533,3.821 8.533,8.533 v 51.2 c 10e-4,4.712 -3.82,8.533 -8.533,8.533 z"
         id="path66" /><path
         style="fill:#844a8f"
         d="m 213.333,494.933 h -42.667 v -42.667 c 0,-4.713 3.821,-8.533 8.533,-8.533 h -17.067 c -4.713,0 -8.533,3.821 -8.533,8.533 v 34.134 17.067 c 0,4.713 3.821,8.533 8.533,8.533 h 17.068 34.133 c 4.713,0 8.533,-3.821 8.533,-8.533 V 486.4 c 10e-4,4.713 -3.82,8.533 -8.533,8.533 z"
         id="path67" /></g><g
       id="g69"
       transform="translate(-70.872692,352.43163)"><path
         style="fill:#b169bf"
         d="m 213.333,512 h -51.2 c -4.713,0 -8.533,-3.821 -8.533,-8.533 v -51.2 c 0,-4.713 3.821,-8.533 8.533,-8.533 h 51.2 c 4.713,0 8.533,3.821 8.533,8.533 v 51.2 c 10e-4,4.712 -3.82,8.533 -8.533,8.533 z"
         id="path68" /><path
         style="fill:#844a8f"
         d="m 213.333,494.933 h -42.667 v -42.667 c 0,-4.713 3.821,-8.533 8.533,-8.533 h -17.067 c -4.713,0 -8.533,3.821 -8.533,8.533 v 34.134 17.067 c 0,4.713 3.821,8.533 8.533,8.533 h 17.068 34.133 c 4.713,0 8.533,-3.821 8.533,-8.533 V 486.4 c 10e-4,4.713 -3.82,8.533 -8.533,8.533 z"
         id="path69" /></g><g
       id="g71"
       transform="translate(-70.872692,420.70063)"><path
         style="fill:#b169bf"
         d="m 213.333,512 h -51.2 c -4.713,0 -8.533,-3.821 -8.533,-8.533 v -51.2 c 0,-4.713 3.821,-8.533 8.533,-8.533 h 51.2 c 4.713,0 8.533,3.821 8.533,8.533 v 51.2 c 10e-4,4.712 -3.82,8.533 -8.533,8.533 z"
         id="path70" /><path
         style="fill:#844a8f"
         d="m 213.333,494.933 h -42.667 v -42.667 c 0,-4.713 3.821,-8.533 8.533,-8.533 h -17.067 c -4.713,0 -8.533,3.821 -8.533,8.533 v 34.134 17.067 c 0,4.713 3.821,8.533 8.533,8.533 h 17.068 34.133 c 4.713,0 8.533,-3.821 8.533,-8.533 V 486.4 c 10e-4,4.713 -3.82,8.533 -8.533,8.533 z"
         id="path71" /></g></g><g
     id="g122"
     transform="translate(-147.12218,-270.71871)"><g
       id="g55"
       transform="translate(-36.551897,597.40171)"><path
         style="fill:#7dbb34"
         d="m 418.133,375.467 h -51.2 c -4.713,0 -8.533,-3.821 -8.533,-8.533 v -51.2 c 0,-4.713 3.821,-8.533 8.533,-8.533 h 51.2 c 4.713,0 8.533,3.821 8.533,8.533 v 51.2 c 10e-4,4.712 -3.82,8.533 -8.533,8.533 z"
         id="path35" /><path
         style="fill:#60a333"
         d="m 418.133,358.4 h -42.667 v -42.667 c 0,-4.713 3.821,-8.533 8.533,-8.533 h -17.067 c -4.713,0 -8.533,3.821 -8.533,8.533 v 34.133 17.067 c 0,4.713 3.821,8.533 8.533,8.533 H 384 418.133 c 4.713,0 8.533,-3.821 8.533,-8.533 v -17.067 c 10e-4,4.713 -3.82,8.534 -8.533,8.534 z"
         id="path36" /></g><g
       id="g73"
       transform="translate(31.717103,597.40171)"><path
         style="fill:#7dbb34"
         d="m 418.133,375.467 h -51.2 c -4.713,0 -8.533,-3.821 -8.533,-8.533 v -51.2 c 0,-4.713 3.821,-8.533 8.533,-8.533 h 51.2 c 4.713,0 8.533,3.821 8.533,8.533 v 51.2 c 10e-4,4.712 -3.82,8.533 -8.533,8.533 z"
         id="path72" /><path
         style="fill:#60a333"
         d="m 418.133,358.4 h -42.667 v -42.667 c 0,-4.713 3.821,-8.533 8.533,-8.533 h -17.067 c -4.713,0 -8.533,3.821 -8.533,8.533 v 34.133 17.067 c 0,4.713 3.821,8.533 8.533,8.533 H 384 418.133 c 4.713,0 8.533,-3.821 8.533,-8.533 v -17.067 c 10e-4,4.713 -3.82,8.534 -8.533,8.534 z"
         id="path73" /></g><g
       id="g75"
       transform="translate(99.986103,597.40171)"><path
         style="fill:#7dbb34"
         d="m 418.133,375.467 h -51.2 c -4.713,0 -8.533,-3.821 -8.533,-8.533 v -51.2 c 0,-4.713 3.821,-8.533 8.533,-8.533 h 51.2 c 4.713,0 8.533,3.821 8.533,8.533 v 51.2 c 10e-4,4.712 -3.82,8.533 -8.533,8.533 z"
         id="path74" /><path
         style="fill:#60a333"
         d="m 418.133,358.4 h -42.667 v -42.667 c 0,-4.713 3.821,-8.533 8.533,-8.533 h -17.067 c -4.713,0 -8.533,3.821 -8.533,8.533 v 34.133 17.067 c 0,4.713 3.821,8.533 8.533,8.533 H 384 418.133 c 4.713,0 8.533,-3.821 8.533,-8.533 v -17.067 c 10e-4,4.713 -3.82,8.534 -8.533,8.534 z"
         id="path75" /></g><g
       id="g77"
       transform="translate(168.2551,597.40171)"><path
         style="fill:#7dbb34"
         d="m 418.133,375.467 h -51.2 c -4.713,0 -8.533,-3.821 -8.533,-8.533 v -51.2 c 0,-4.713 3.821,-8.533 8.533,-8.533 h 51.2 c 4.713,0 8.533,3.821 8.533,8.533 v 51.2 c 10e-4,4.712 -3.82,8.533 -8.533,8.533 z"
         id="path76" /><path
         style="fill:#60a333"
         d="m 418.133,358.4 h -42.667 v -42.667 c 0,-4.713 3.821,-8.533 8.533,-8.533 h -17.067 c -4.713,0 -8.533,3.821 -8.533,8.533 v 34.133 17.067 c 0,4.713 3.821,8.533 8.533,8.533 H 384 418.133 c 4.713,0 8.533,-3.821 8.533,-8.533 v -17.067 c 10e-4,4.713 -3.82,8.534 -8.533,8.534 z"
         id="path77" /></g><g
       id="g79"
       transform="translate(236.5241,597.40171)"><path
         style="fill:#7dbb34"
         d="m 418.133,375.467 h -51.2 c -4.713,0 -8.533,-3.821 -8.533,-8.533 v -51.2 c 0,-4.713 3.821,-8.533 8.533,-8.533 h 51.2 c 4.713,0 8.533,3.821 8.533,8.533 v 51.2 c 10e-4,4.712 -3.82,8.533 -8.533,8.533 z"
         id="path78" /><path
         style="fill:#60a333"
         d="m 418.133,358.4 h -42.667 v -42.667 c 0,-4.713 3.821,-8.533 8.533,-8.533 h -17.067 c -4.713,0 -8.533,3.821 -8.533,8.533 v 34.133 17.067 c 0,4.713 3.821,8.533 8.533,8.533 H 384 418.133 c 4.713,0 8.533,-3.821 8.533,-8.533 v -17.067 c 10e-4,4.713 -3.82,8.534 -8.533,8.534 z"
         id="path79" /></g></g><g
     id="g116"
     transform="translate(83.359307,215.64263)"><g
       id="g53"
       transform="translate(270.57761,85.433375)"><path
         style="fill:#45cae0"
         d="m 221.867,196.267 h -51.2 c -4.713,0 -8.533,-3.821 -8.533,-8.533 v -51.2 c 0,-4.713 3.821,-8.533 8.533,-8.533 h 51.2 c 4.713,0 8.533,3.821 8.533,8.533 v 51.2 c 0,4.712 -3.821,8.533 -8.533,8.533 z"
         id="path49" /><path
         style="fill:#0aadbf"
         d="M 221.867,179.2 H 179.2 v -42.667 c 0,-4.713 3.821,-8.533 8.533,-8.533 h -17.067 c -4.713,0 -8.533,3.821 -8.533,8.533 v 34.133 17.067 c 0,4.713 3.821,8.533 8.533,8.533 h 17.067 34.133 c 4.713,0 8.533,-3.821 8.533,-8.533 v -17.067 c 0.001,4.713 -3.82,8.534 -8.532,8.534 z"
         id="path50" /></g><g
       id="g83"
       transform="translate(270.57761,153.70237)"><path
         style="fill:#45cae0"
         d="m 221.867,196.267 h -51.2 c -4.713,0 -8.533,-3.821 -8.533,-8.533 v -51.2 c 0,-4.713 3.821,-8.533 8.533,-8.533 h 51.2 c 4.713,0 8.533,3.821 8.533,8.533 v 51.2 c 0,4.712 -3.821,8.533 -8.533,8.533 z"
         id="path82" /><path
         style="fill:#0aadbf"
         d="M 221.867,179.2 H 179.2 v -42.667 c 0,-4.713 3.821,-8.533 8.533,-8.533 h -17.067 c -4.713,0 -8.533,3.821 -8.533,8.533 v 34.133 17.067 c 0,4.713 3.821,8.533 8.533,8.533 h 17.067 34.133 c 4.713,0 8.533,-3.821 8.533,-8.533 v -17.067 c 0.001,4.713 -3.82,8.534 -8.532,8.534 z"
         id="path83" /></g><g
       id="g87"
       transform="translate(270.96478,221.97137)"><path
         style="fill:#45cae0"
         d="m 221.867,196.267 h -51.2 c -4.713,0 -8.533,-3.821 -8.533,-8.533 v -51.2 c 0,-4.713 3.821,-8.533 8.533,-8.533 h 51.2 c 4.713,0 8.533,3.821 8.533,8.533 v 51.2 c 0,4.712 -3.821,8.533 -8.533,8.533 z"
         id="path86" /><path
         style="fill:#0aadbf"
         d="M 221.867,179.2 H 179.2 v -42.667 c 0,-4.713 3.821,-8.533 8.533,-8.533 h -17.067 c -4.713,0 -8.533,3.821 -8.533,8.533 v 34.133 17.067 c 0,4.713 3.821,8.533 8.533,8.533 h 17.067 34.133 c 4.713,0 8.533,-3.821 8.533,-8.533 v -17.067 c 0.001,4.713 -3.82,8.534 -8.532,8.534 z"
         id="path87" /></g><g
       id="g91"
       transform="translate(270.96478,290.24037)"><path
         style="fill:#45cae0"
         d="m 221.867,196.267 h -51.2 c -4.713,0 -8.533,-3.821 -8.533,-8.533 v -51.2 c 0,-4.713 3.821,-8.533 8.533,-8.533 h 51.2 c 4.713,0 8.533,3.821 8.533,8.533 v 51.2 c 0,4.712 -3.821,8.533 -8.533,8.533 z"
         id="path90" /><path
         style="fill:#0aadbf"
         d="M 221.867,179.2 H 179.2 v -42.667 c 0,-4.713 3.821,-8.533 8.533,-8.533 h -17.067 c -4.713,0 -8.533,3.821 -8.533,8.533 v 34.133 17.067 c 0,4.713 3.821,8.533 8.533,8.533 h 17.067 34.133 c 4.713,0 8.533,-3.821 8.533,-8.533 v -17.067 c 0.001,4.713 -3.82,8.534 -8.532,8.534 z"
         id="path91" /></g><g
       id="g81"
       transform="translate(338.84661,85.433375)"><path
         style="fill:#45cae0"
         d="m 221.867,196.267 h -51.2 c -4.713,0 -8.533,-3.821 -8.533,-8.533 v -51.2 c 0,-4.713 3.821,-8.533 8.533,-8.533 h 51.2 c 4.713,0 8.533,3.821 8.533,8.533 v 51.2 c 0,4.712 -3.821,8.533 -8.533,8.533 z"
         id="path80" /><path
         style="fill:#0aadbf"
         d="M 221.867,179.2 H 179.2 v -42.667 c 0,-4.713 3.821,-8.533 8.533,-8.533 h -17.067 c -4.713,0 -8.533,3.821 -8.533,8.533 v 34.133 17.067 c 0,4.713 3.821,8.533 8.533,8.533 h 17.067 34.133 c 4.713,0 8.533,-3.821 8.533,-8.533 v -17.067 c 0.001,4.713 -3.82,8.534 -8.532,8.534 z"
         id="path81" /></g><g
       id="g85"
       transform="translate(338.84661,153.70237)"><path
         style="fill:#45cae0"
         d="m 221.867,196.267 h -51.2 c -4.713,0 -8.533,-3.821 -8.533,-8.533 v -51.2 c 0,-4.713 3.821,-8.533 8.533,-8.533 h 51.2 c 4.713,0 8.533,3.821 8.533,8.533 v 51.2 c 0,4.712 -3.821,8.533 -8.533,8.533 z"
         id="path84" /><path
         style="fill:#0aadbf"
         d="M 221.867,179.2 H 179.2 v -42.667 c 0,-4.713 3.821,-8.533 8.533,-8.533 h -17.067 c -4.713,0 -8.533,3.821 -8.533,8.533 v 34.133 17.067 c 0,4.713 3.821,8.533 8.533,8.533 h 17.067 34.133 c 4.713,0 8.533,-3.821 8.533,-8.533 v -17.067 c 0.001,4.713 -3.82,8.534 -8.532,8.534 z"
         id="path85" /></g><g
       id="g89"
       transform="translate(339.23378,221.97138)"><path
         style="fill:#45cae0"
         d="m 221.867,196.267 h -51.2 c -4.713,0 -8.533,-3.821 -8.533,-8.533 v -51.2 c 0,-4.713 3.821,-8.533 8.533,-8.533 h 51.2 c 4.713,0 8.533,3.821 8.533,8.533 v 51.2 c 0,4.712 -3.821,8.533 -8.533,8.533 z"
         id="path88" /><path
         style="fill:#0aadbf"
         d="M 221.867,179.2 H 179.2 v -42.667 c 0,-4.713 3.821,-8.533 8.533,-8.533 h -17.067 c -4.713,0 -8.533,3.821 -8.533,8.533 v 34.133 17.067 c 0,4.713 3.821,8.533 8.533,8.533 h 17.067 34.133 c 4.713,0 8.533,-3.821 8.533,-8.533 v -17.067 c 0.001,4.713 -3.82,8.534 -8.532,8.534 z"
         id="path89" /></g><g
       id="g93"
       transform="translate(339.23378,290.24037)"><path
         style="fill:#45cae0"
         d="m 221.867,196.267 h -51.2 c -4.713,0 -8.533,-3.821 -8.533,-8.533 v -51.2 c 0,-4.713 3.821,-8.533 8.533,-8.533 h 51.2 c 4.713,0 8.533,3.821 8.533,8.533 v 51.2 c 0,4.712 -3.821,8.533 -8.533,8.533 z"
         id="path92" /><path
         style="fill:#0aadbf"
         d="M 221.867,179.2 H 179.2 v -42.667 c 0,-4.713 3.821,-8.533 8.533,-8.533 h -17.067 c -4.713,0 -8.533,3.821 -8.533,8.533 v 34.133 17.067 c 0,4.713 3.821,8.533 8.533,8.533 h 17.067 34.133 c 4.713,0 8.533,-3.821 8.533,-8.533 v -17.067 c 0.001,4.713 -3.82,8.534 -8.532,8.534 z"
         id="path93" /></g></g><g
     id="g117"
     transform="translate(27.980606,-157.50112)"><g
       id="g52"
       transform="translate(198.89555,-149.69888)"><path
         style="fill:#f9d84e"
         d="M 76.8,375.467 H 25.6 c -4.713,0 -8.533,-3.821 -8.533,-8.533 v -51.2 c 0,-4.713 3.821,-8.533 8.533,-8.533 h 51.2 c 4.713,0 8.533,3.821 8.533,8.533 v 51.2 c 0,4.712 -3.82,8.533 -8.533,8.533 z"
         id="path37" /><path
         style="fill:#ffc20d"
         d="M 76.8,358.4 H 34.133 v -42.667 c 0,-4.713 3.821,-8.533 8.533,-8.533 H 25.6 c -4.713,0 -8.533,3.821 -8.533,8.533 v 34.133 17.067 c 0,4.713 3.821,8.533 8.533,8.533 H 42.667 76.8 c 4.713,0 8.533,-3.821 8.533,-8.533 v -17.067 c 0,4.713 -3.82,8.534 -8.533,8.534 z"
         id="path38" /></g><g
       id="g95"
       transform="translate(198.89555,-81.42988)"><path
         style="fill:#f9d84e"
         d="M 76.8,375.467 H 25.6 c -4.713,0 -8.533,-3.821 -8.533,-8.533 v -51.2 c 0,-4.713 3.821,-8.533 8.533,-8.533 h 51.2 c 4.713,0 8.533,3.821 8.533,8.533 v 51.2 c 0,4.712 -3.82,8.533 -8.533,8.533 z"
         id="path94" /><path
         style="fill:#ffc20d"
         d="M 76.8,358.4 H 34.133 v -42.667 c 0,-4.713 3.821,-8.533 8.533,-8.533 H 25.6 c -4.713,0 -8.533,3.821 -8.533,8.533 v 34.133 17.067 c 0,4.713 3.821,8.533 8.533,8.533 H 42.667 76.8 c 4.713,0 8.533,-3.821 8.533,-8.533 v -17.067 c 0,4.713 -3.82,8.534 -8.533,8.534 z"
         id="path95" /></g><g
       id="g97"
       transform="translate(198.89555,-13.16088)"><path
         style="fill:#f9d84e"
         d="M 76.8,375.467 H 25.6 c -4.713,0 -8.533,-3.821 -8.533,-8.533 v -51.2 c 0,-4.713 3.821,-8.533 8.533,-8.533 h 51.2 c 4.713,0 8.533,3.821 8.533,8.533 v 51.2 c 0,4.712 -3.82,8.533 -8.533,8.533 z"
         id="path96" /><path
         style="fill:#ffc20d"
         d="M 76.8,358.4 H 34.133 v -42.667 c 0,-4.713 3.821,-8.533 8.533,-8.533 H 25.6 c -4.713,0 -8.533,3.821 -8.533,8.533 v 34.133 17.067 c 0,4.713 3.821,8.533 8.533,8.533 H 42.667 76.8 c 4.713,0 8.533,-3.821 8.533,-8.533 v -17.067 c 0,4.713 -3.82,8.534 -8.533,8.534 z"
         id="path97" /></g><g
       id="g99"
       transform="translate(198.89555,55.10812)"><path
         style="fill:#f9d84e"
         d="M 76.8,375.467 H 25.6 c -4.713,0 -8.533,-3.821 -8.533,-8.533 v -51.2 c 0,-4.713 3.821,-8.533 8.533,-8.533 h 51.2 c 4.713,0 8.533,3.821 8.533,8.533 v 51.2 c 0,4.712 -3.82,8.533 -8.533,8.533 z"
         id="path98" /><path
         style="fill:#ffc20d"
         d="M 76.8,358.4 H 34.133 v -42.667 c 0,-4.713 3.821,-8.533 8.533,-8.533 H 25.6 c -4.713,0 -8.533,3.821 -8.533,8.533 v 34.133 17.067 c 0,4.713 3.821,8.533 8.533,8.533 H 42.667 76.8 c 4.713,0 8.533,-3.821 8.533,-8.533 v -17.067 c 0,4.713 -3.82,8.534 -8.533,8.534 z"
         id="path99" /></g><g
       id="g101"
       transform="translate(198.89555,123.37712)"><path
         style="fill:#f9d84e"
         d="M 76.8,375.467 H 25.6 c -4.713,0 -8.533,-3.821 -8.533,-8.533 v -51.2 c 0,-4.713 3.821,-8.533 8.533,-8.533 h 51.2 c 4.713,0 8.533,3.821 8.533,8.533 v 51.2 c 0,4.712 -3.82,8.533 -8.533,8.533 z"
         id="path100" /><path
         style="fill:#ffc20d"
         d="M 76.8,358.4 H 34.133 v -42.667 c 0,-4.713 3.821,-8.533 8.533,-8.533 H 25.6 c -4.713,0 -8.533,3.821 -8.533,8.533 v 34.133 17.067 c 0,4.713 3.821,8.533 8.533,8.533 H 42.667 76.8 c 4.713,0 8.533,-3.821 8.533,-8.533 v -17.067 c 0,4.713 -3.82,8.534 -8.533,8.534 z"
         id="path101" /></g></g><g
     id="g121"
     transform="translate(117.56617,-484.10385)"><g
       id="g54"
       transform="translate(5.6997537,600.1041)"><path
         style="fill:#fd5e95"
         d="m 315.733,68.267 h -51.2 C 259.82,68.267 256,64.446 256,59.734 V 8.534 C 256,3.821 259.821,0 264.533,0 h 51.2 c 4.713,0 8.533,3.821 8.533,8.533 v 51.2 c 10e-4,4.713 -3.82,8.534 -8.533,8.534 z"
         id="path25" /><path
         style="fill:#d14d7b"
         d="M 315.733,51.2 H 273.066 V 8.533 C 273.066,3.82 276.887,0 281.599,0 H 264.532 C 259.821,0 256,3.821 256,8.533 v 34.133 17.067 c 0,4.713 3.821,8.533 8.533,8.533 h 17.067 34.133 c 4.713,0 8.533,-3.821 8.533,-8.533 V 42.667 c 10e-4,4.712 -3.82,8.533 -8.533,8.533 z"
         id="path26" /></g><g
       id="g110"
       transform="translate(5.6997537,668.37309)"><path
         style="fill:#fd5e95"
         d="m 315.733,68.267 h -51.2 C 259.82,68.267 256,64.446 256,59.734 V 8.534 C 256,3.821 259.821,0 264.533,0 h 51.2 c 4.713,0 8.533,3.821 8.533,8.533 v 51.2 c 10e-4,4.713 -3.82,8.534 -8.533,8.534 z"
         id="path109" /><path
         style="fill:#d14d7b"
         d="M 315.733,51.2 H 273.066 V 8.533 C 273.066,3.82 276.887,0 281.599,0 H 264.532 C 259.821,0 256,3.821 256,8.533 v 34.133 17.067 c 0,4.713 3.821,8.533 8.533,8.533 h 17.067 34.133 c 4.713,0 8.533,-3.821 8.533,-8.533 V 42.667 c 10e-4,4.712 -3.82,8.533 -8.533,8.533 z"
         id="path110" /></g><g
       id="g103"
       transform="translate(73.967754,600.1041)"><path
         style="fill:#fd5e95"
         d="m 315.733,68.267 h -51.2 C 259.82,68.267 256,64.446 256,59.734 V 8.534 C 256,3.821 259.821,0 264.533,0 h 51.2 c 4.713,0 8.533,3.821 8.533,8.533 v 51.2 c 10e-4,4.713 -3.82,8.534 -8.533,8.534 z"
         id="path102" /><path
         style="fill:#d14d7b"
         d="M 315.733,51.2 H 273.066 V 8.533 C 273.066,3.82 276.887,0 281.599,0 H 264.532 C 259.821,0 256,3.821 256,8.533 v 34.133 17.067 c 0,4.713 3.821,8.533 8.533,8.533 h 17.067 34.133 c 4.713,0 8.533,-3.821 8.533,-8.533 V 42.667 c 10e-4,4.712 -3.82,8.533 -8.533,8.533 z"
         id="path103" /></g><g
       id="g112"
       transform="translate(73.967754,668.3731)"><path
         style="fill:#fd5e95"
         d="m 315.733,68.267 h -51.2 C 259.82,68.267 256,64.446 256,59.734 V 8.534 C 256,3.821 259.821,0 264.533,0 h 51.2 c 4.713,0 8.533,3.821 8.533,8.533 v 51.2 c 10e-4,4.713 -3.82,8.534 -8.533,8.534 z"
         id="path111" /><path
         style="fill:#d14d7b"
         d="M 315.733,51.2 H 273.066 V 8.533 C 273.066,3.82 276.887,0 281.599,0 H 264.532 C 259.821,0 256,3.821 256,8.533 v 34.133 17.067 c 0,4.713 3.821,8.533 8.533,8.533 h 17.067 34.133 c 4.713,0 8.533,-3.821 8.533,-8.533 V 42.667 c 10e-4,4.712 -3.82,8.533 -8.533,8.533 z"
         id="path112" /></g><g
       id="g105"
       transform="translate(142.23575,600.1041)"><path
         style="fill:#fd5e95"
         d="m 315.733,68.267 h -51.2 C 259.82,68.267 256,64.446 256,59.734 V 8.534 C 256,3.821 259.821,0 264.533,0 h 51.2 c 4.713,0 8.533,3.821 8.533,8.533 v 51.2 c 10e-4,4.713 -3.82,8.534 -8.533,8.534 z"
         id="path104" /><path
         style="fill:#d14d7b"
         d="M 315.733,51.2 H 273.066 V 8.533 C 273.066,3.82 276.887,0 281.599,0 H 264.532 C 259.821,0 256,3.821 256,8.533 v 34.133 17.067 c 0,4.713 3.821,8.533 8.533,8.533 h 17.067 34.133 c 4.713,0 8.533,-3.821 8.533,-8.533 V 42.667 c 10e-4,4.712 -3.82,8.533 -8.533,8.533 z"
         id="path105" /></g><g
       id="g114"
       transform="translate(142.23575,668.3731)"><path
         style="fill:#fd5e95"
         d="m 315.733,68.267 h -51.2 C 259.82,68.267 256,64.446 256,59.734 V 8.534 C 256,3.821 259.821,0 264.533,0 h 51.2 c 4.713,0 8.533,3.821 8.533,8.533 v 51.2 c 10e-4,4.713 -3.82,8.534 -8.533,8.534 z"
         id="path113" /><path
         style="fill:#d14d7b"
         d="M 315.733,51.2 H 273.066 V 8.533 C 273.066,3.82 276.887,0 281.599,0 H 264.532 C 259.821,0 256,3.821 256,8.533 v 34.133 17.067 c 0,4.713 3.821,8.533 8.533,8.533 h 17.067 34.133 c 4.713,0 8.533,-3.821 8.533,-8.533 V 42.667 c 10e-4,4.712 -3.82,8.533 -8.533,8.533 z"
         id="path114" /></g></g><path
     style="fill:#cccccc;stroke:#000000;stroke-width:7.55906;stroke-dasharray:none;stroke-opacity:1;marker-end:url(#ArrowWideRounded)"
     d="M 106.45592,768.37641 H 602.80888"
     id="path122" /><path
     style="fill:#cccccc;stroke:#000000;stroke-width:7.55906;stroke-dasharray:none;stroke-opacity:1;marker-end:url(#ArrowWideRounded)"
     d="M 46.48962,702.15 V 205.79703"
     id="path123" /><text
     xml:space="preserve"
     style="font-style:normal;font-variant:normal;font-weight:normal;font-stretch:normal;font-size:42.6667px;font-family:'DejaVu Sans';-inkscape-font-specification:'DejaVu Sans';fill:#000000;stroke:none;stroke-width:0.755906;stroke-dasharray:none;stroke-opacity:1"
     x="627.18304"
     y="782.28259"
     id="text123"><tspan
       sodipodi:role="line"
       id="tspan123"
       x="627.18304"
       y="782.28259"
       style="font-size:42.6667px">number of cores</tspan></text><text
     xml:space="preserve"
     style="font-style:normal;font-variant:normal;font-weight:normal;font-stretch:normal;font-size:42.6667px;font-family:'DejaVu Sans';-inkscape-font-specification:'DejaVu Sans';fill:#000000;stroke:none;stroke-width:0.755906;stroke-dasharray:none;stroke-opacity:1"
     x="-1.1458342"
     y="181.03867"
     id="text124"><tspan
       sodipodi:role="line"
       id="tspan124"
       x="-1.1458342"
       y="181.03867"
       style="font-size:42.6667px">time</tspan></text><g
     id="g134"
     transform="translate(437.14227,203.30588)"><g
       id="g125"
       transform="translate(198.89555,-149.69888)"><path
         style="fill:#f9d84e"
         d="M 76.8,375.467 H 25.6 c -4.713,0 -8.533,-3.821 -8.533,-8.533 v -51.2 c 0,-4.713 3.821,-8.533 8.533,-8.533 h 51.2 c 4.713,0 8.533,3.821 8.533,8.533 v 51.2 c 0,4.712 -3.82,8.533 -8.533,8.533 z"
         id="path124" /><path
         style="fill:#ffc20d"
         d="M 76.8,358.4 H 34.133 v -42.667 c 0,-4.713 3.821,-8.533 8.533,-8.533 H 25.6 c -4.713,0 -8.533,3.821 -8.533,8.533 v 34.133 17.067 c 0,4.713 3.821,8.533 8.533,8.533 H 42.667 76.8 c 4.713,0 8.533,-3.821 8.533,-8.533 v -17.067 c 0,4.713 -3.82,8.534 -8.533,8.534 z"
         id="path125" /></g><g
       id="g127"
       transform="translate(198.89555,-81.42988)"><path
         style="fill:#f9d84e"
         d="M 76.8,375.467 H 25.6 c -4.713,0 -8.533,-3.821 -8.533,-8.533 v -51.2 c 0,-4.713 3.821,-8.533 8.533,-8.533 h 51.2 c 4.713,0 8.533,3.821 8.533,8.533 v 51.2 c 0,4.712 -3.82,8.533 -8.533,8.533 z"
         id="path126" /><path
         style="fill:#ffc20d"
         d="M 76.8,358.4 H 34.133 v -42.667 c 0,-4.713 3.821,-8.533 8.533,-8.533 H 25.6 c -4.713,0 -8.533,3.821 -8.533,8.533 v 34.133 17.067 c 0,4.713 3.821,8.533 8.533,8.533 H 42.667 76.8 c 4.713,0 8.533,-3.821 8.533,-8.533 v -17.067 c 0,4.713 -3.82,8.534 -8.533,8.534 z"
         id="path127" /></g><g
       id="g129"
       transform="translate(198.89555,-13.16088)"><path
         style="fill:#f9d84e"
         d="M 76.8,375.467 H 25.6 c -4.713,0 -8.533,-3.821 -8.533,-8.533 v -51.2 c 0,-4.713 3.821,-8.533 8.533,-8.533 h 51.2 c 4.713,0 8.533,3.821 8.533,8.533 v 51.2 c 0,4.712 -3.82,8.533 -8.533,8.533 z"
         id="path128" /><path
         style="fill:#ffc20d"
         d="M 76.8,358.4 H 34.133 v -42.667 c 0,-4.713 3.821,-8.533 8.533,-8.533 H 25.6 c -4.713,0 -8.533,3.821 -8.533,8.533 v 34.133 17.067 c 0,4.713 3.821,8.533 8.533,8.533 H 42.667 76.8 c 4.713,0 8.533,-3.821 8.533,-8.533 v -17.067 c 0,4.713 -3.82,8.534 -8.533,8.534 z"
         id="path129" /></g><g
       id="g131"
       transform="translate(198.89555,55.10812)"><path
         style="fill:#f9d84e"
         d="M 76.8,375.467 H 25.6 c -4.713,0 -8.533,-3.821 -8.533,-8.533 v -51.2 c 0,-4.713 3.821,-8.533 8.533,-8.533 h 51.2 c 4.713,0 8.533,3.821 8.533,8.533 v 51.2 c 0,4.712 -3.82,8.533 -8.533,8.533 z"
         id="path130" /><path
         style="fill:#ffc20d"
         d="M 76.8,358.4 H 34.133 v -42.667 c 0,-4.713 3.821,-8.533 8.533,-8.533 H 25.6 c -4.713,0 -8.533,3.821 -8.533,8.533 v 34.133 17.067 c 0,4.713 3.821,8.533 8.533,8.533 H 42.667 76.8 c 4.713,0 8.533,-3.821 8.533,-8.533 v -17.067 c 0,4.713 -3.82,8.534 -8.533,8.534 z"
         id="path131" /></g><g
       id="g133"
       transform="translate(198.89555,123.37712)"><path
         style="fill:#f9d84e"
         d="M 76.8,375.467 H 25.6 c -4.713,0 -8.533,-3.821 -8.533,-8.533 v -51.2 c 0,-4.713 3.821,-8.533 8.533,-8.533 h 51.2 c 4.713,0 8.533,3.821 8.533,8.533 v 51.2 c 0,4.712 -3.82,8.533 -8.533,8.533 z"
         id="path132" /><path
         style="fill:#ffc20d"
         d="M 76.8,358.4 H 34.133 v -42.667 c 0,-4.713 3.821,-8.533 8.533,-8.533 H 25.6 c -4.713,0 -8.533,3.821 -8.533,8.533 v 34.133 17.067 c 0,4.713 3.821,8.533 8.533,8.533 H 42.667 76.8 c 4.713,0 8.533,-3.821 8.533,-8.533 v -17.067 c 0,4.713 -3.82,8.534 -8.533,8.534 z"
         id="path133" /></g></g></g><g
   id="g242"
   transform="matrix(0.28111915,0,0,0.28111915,0,-13.333105)"><g
     id="g136"
     transform="translate(162.61876,1517.7776)"><path
       style="fill:#e6e6e6"
       d="m 71.99606,101.81771 h -51.2 c -4.713,0 -8.533,-3.821 -8.533,-8.533 v -51.2 c 0,-4.713 3.821,-8.533 8.533,-8.533 h 51.2 c 4.713,0 8.533,3.821 8.533,8.533 v 51.2 c 0.001,4.712 -3.82,8.533 -8.533,8.533 z"
       id="path135" /><path
       style="fill:#cccccc"
       d="m 71.99606,84.75071 h -42.667 v -42.667 c 0,-4.713 3.821,-8.533 8.533,-8.533 h -17.067 c -4.713,0 -8.533,3.821 -8.533,8.533 v 34.134 17.067 c 0,4.713 3.821,8.533 8.533,8.533 h 17.068 34.133 c 4.713,0 8.533,-3.821 8.533,-8.533 v -17.067 c 0.001,4.713 -3.82,8.533 -8.533,8.533 z"
       id="path136" /></g><g
     id="g153"
     transform="translate(23.729612,754.42136)"><g
       id="g138"
       transform="translate(-70.872692,-57.18237)"><path
         style="fill:#b169bf"
         d="m 213.333,512 h -51.2 c -4.713,0 -8.533,-3.821 -8.533,-8.533 v -51.2 c 0,-4.713 3.821,-8.533 8.533,-8.533 h 51.2 c 4.713,0 8.533,3.821 8.533,8.533 v 51.2 c 10e-4,4.712 -3.82,8.533 -8.533,8.533 z"
         id="path137" /><path
         style="fill:#844a8f"
         d="m 213.333,494.933 h -42.667 v -42.667 c 0,-4.713 3.821,-8.533 8.533,-8.533 h -17.067 c -4.713,0 -8.533,3.821 -8.533,8.533 v 34.134 17.067 c 0,4.713 3.821,8.533 8.533,8.533 h 17.068 34.133 c 4.713,0 8.533,-3.821 8.533,-8.533 V 486.4 c 10e-4,4.713 -3.82,8.533 -8.533,8.533 z"
         id="path138" /></g><g
       id="g140"
       transform="translate(-70.872692,11.08663)"><path
         style="fill:#b169bf"
         d="m 213.333,512 h -51.2 c -4.713,0 -8.533,-3.821 -8.533,-8.533 v -51.2 c 0,-4.713 3.821,-8.533 8.533,-8.533 h 51.2 c 4.713,0 8.533,3.821 8.533,8.533 v 51.2 c 10e-4,4.712 -3.82,8.533 -8.533,8.533 z"
         id="path139" /><path
         style="fill:#844a8f"
         d="m 213.333,494.933 h -42.667 v -42.667 c 0,-4.713 3.821,-8.533 8.533,-8.533 h -17.067 c -4.713,0 -8.533,3.821 -8.533,8.533 v 34.134 17.067 c 0,4.713 3.821,8.533 8.533,8.533 h 17.068 34.133 c 4.713,0 8.533,-3.821 8.533,-8.533 V 486.4 c 10e-4,4.713 -3.82,8.533 -8.533,8.533 z"
         id="path140" /></g><g
       id="g142"
       transform="translate(-70.872692,79.35563)"><path
         style="fill:#b169bf"
         d="m 213.333,512 h -51.2 c -4.713,0 -8.533,-3.821 -8.533,-8.533 v -51.2 c 0,-4.713 3.821,-8.533 8.533,-8.533 h 51.2 c 4.713,0 8.533,3.821 8.533,8.533 v 51.2 c 10e-4,4.712 -3.82,8.533 -8.533,8.533 z"
         id="path141" /><path
         style="fill:#844a8f"
         d="m 213.333,494.933 h -42.667 v -42.667 c 0,-4.713 3.821,-8.533 8.533,-8.533 h -17.067 c -4.713,0 -8.533,3.821 -8.533,8.533 v 34.134 17.067 c 0,4.713 3.821,8.533 8.533,8.533 h 17.068 34.133 c 4.713,0 8.533,-3.821 8.533,-8.533 V 486.4 c 10e-4,4.713 -3.82,8.533 -8.533,8.533 z"
         id="path142" /></g><g
       id="g144"
       transform="translate(-70.872692,147.62463)"><path
         style="fill:#b169bf"
         d="m 213.333,512 h -51.2 c -4.713,0 -8.533,-3.821 -8.533,-8.533 v -51.2 c 0,-4.713 3.821,-8.533 8.533,-8.533 h 51.2 c 4.713,0 8.533,3.821 8.533,8.533 v 51.2 c 10e-4,4.712 -3.82,8.533 -8.533,8.533 z"
         id="path143" /><path
         style="fill:#844a8f"
         d="m 213.333,494.933 h -42.667 v -42.667 c 0,-4.713 3.821,-8.533 8.533,-8.533 h -17.067 c -4.713,0 -8.533,3.821 -8.533,8.533 v 34.134 17.067 c 0,4.713 3.821,8.533 8.533,8.533 h 17.068 34.133 c 4.713,0 8.533,-3.821 8.533,-8.533 V 486.4 c 10e-4,4.713 -3.82,8.533 -8.533,8.533 z"
         id="path144" /></g><g
       id="g146"
       transform="translate(-70.872692,215.89363)"><path
         style="fill:#b169bf"
         d="m 213.333,512 h -51.2 c -4.713,0 -8.533,-3.821 -8.533,-8.533 v -51.2 c 0,-4.713 3.821,-8.533 8.533,-8.533 h 51.2 c 4.713,0 8.533,3.821 8.533,8.533 v 51.2 c 10e-4,4.712 -3.82,8.533 -8.533,8.533 z"
         id="path145" /><path
         style="fill:#844a8f"
         d="m 213.333,494.933 h -42.667 v -42.667 c 0,-4.713 3.821,-8.533 8.533,-8.533 h -17.067 c -4.713,0 -8.533,3.821 -8.533,8.533 v 34.134 17.067 c 0,4.713 3.821,8.533 8.533,8.533 h 17.068 34.133 c 4.713,0 8.533,-3.821 8.533,-8.533 V 486.4 c 10e-4,4.713 -3.82,8.533 -8.533,8.533 z"
         id="path146" /></g><g
       id="g148"
       transform="translate(-70.872692,284.16263)"><path
         style="fill:#b169bf"
         d="m 213.333,512 h -51.2 c -4.713,0 -8.533,-3.821 -8.533,-8.533 v -51.2 c 0,-4.713 3.821,-8.533 8.533,-8.533 h 51.2 c 4.713,0 8.533,3.821 8.533,8.533 v 51.2 c 10e-4,4.712 -3.82,8.533 -8.533,8.533 z"
         id="path147" /><path
         style="fill:#844a8f"
         d="m 213.333,494.933 h -42.667 v -42.667 c 0,-4.713 3.821,-8.533 8.533,-8.533 h -17.067 c -4.713,0 -8.533,3.821 -8.533,8.533 v 34.134 17.067 c 0,4.713 3.821,8.533 8.533,8.533 h 17.068 34.133 c 4.713,0 8.533,-3.821 8.533,-8.533 V 486.4 c 10e-4,4.713 -3.82,8.533 -8.533,8.533 z"
         id="path148" /></g><g
       id="g150"
       transform="translate(-70.872692,352.43163)"><path
         style="fill:#b169bf"
         d="m 213.333,512 h -51.2 c -4.713,0 -8.533,-3.821 -8.533,-8.533 v -51.2 c 0,-4.713 3.821,-8.533 8.533,-8.533 h 51.2 c 4.713,0 8.533,3.821 8.533,8.533 v 51.2 c 10e-4,4.712 -3.82,8.533 -8.533,8.533 z"
         id="path149" /><path
         style="fill:#844a8f"
         d="m 213.333,494.933 h -42.667 v -42.667 c 0,-4.713 3.821,-8.533 8.533,-8.533 h -17.067 c -4.713,0 -8.533,3.821 -8.533,8.533 v 34.134 17.067 c 0,4.713 3.821,8.533 8.533,8.533 h 17.068 34.133 c 4.713,0 8.533,-3.821 8.533,-8.533 V 486.4 c 10e-4,4.713 -3.82,8.533 -8.533,8.533 z"
         id="path150" /></g><g
       id="g152"
       transform="translate(-70.872692,420.70063)"><path
         style="fill:#b169bf"
         d="m 213.333,512 h -51.2 c -4.713,0 -8.533,-3.821 -8.533,-8.533 v -51.2 c 0,-4.713 3.821,-8.533 8.533,-8.533 h 51.2 c 4.713,0 8.533,3.821 8.533,8.533 v 51.2 c 10e-4,4.712 -3.82,8.533 -8.533,8.533 z"
         id="path151" /><path
         style="fill:#844a8f"
         d="m 213.333,494.933 h -42.667 v -42.667 c 0,-4.713 3.821,-8.533 8.533,-8.533 h -17.067 c -4.713,0 -8.533,3.821 -8.533,8.533 v 34.134 17.067 c 0,4.713 3.821,8.533 8.533,8.533 h 17.068 34.133 c 4.713,0 8.533,-3.821 8.533,-8.533 V 486.4 c 10e-4,4.713 -3.82,8.533 -8.533,8.533 z"
         id="path152" /></g></g><g
     id="g163"
     transform="translate(-147.12218,714.25328)"><g
       id="g154"
       transform="translate(-36.551897,597.40171)"><path
         style="fill:#7dbb34"
         d="m 418.133,375.467 h -51.2 c -4.713,0 -8.533,-3.821 -8.533,-8.533 v -51.2 c 0,-4.713 3.821,-8.533 8.533,-8.533 h 51.2 c 4.713,0 8.533,3.821 8.533,8.533 v 51.2 c 10e-4,4.712 -3.82,8.533 -8.533,8.533 z"
         id="path153" /><path
         style="fill:#60a333"
         d="m 418.133,358.4 h -42.667 v -42.667 c 0,-4.713 3.821,-8.533 8.533,-8.533 h -17.067 c -4.713,0 -8.533,3.821 -8.533,8.533 v 34.133 17.067 c 0,4.713 3.821,8.533 8.533,8.533 H 384 418.133 c 4.713,0 8.533,-3.821 8.533,-8.533 v -17.067 c 10e-4,4.713 -3.82,8.534 -8.533,8.534 z"
         id="path154" /></g><g
       id="g156"
       transform="translate(31.717103,597.40171)"><path
         style="fill:#7dbb34"
         d="m 418.133,375.467 h -51.2 c -4.713,0 -8.533,-3.821 -8.533,-8.533 v -51.2 c 0,-4.713 3.821,-8.533 8.533,-8.533 h 51.2 c 4.713,0 8.533,3.821 8.533,8.533 v 51.2 c 10e-4,4.712 -3.82,8.533 -8.533,8.533 z"
         id="path155" /><path
         style="fill:#60a333"
         d="m 418.133,358.4 h -42.667 v -42.667 c 0,-4.713 3.821,-8.533 8.533,-8.533 h -17.067 c -4.713,0 -8.533,3.821 -8.533,8.533 v 34.133 17.067 c 0,4.713 3.821,8.533 8.533,8.533 H 384 418.133 c 4.713,0 8.533,-3.821 8.533,-8.533 v -17.067 c 10e-4,4.713 -3.82,8.534 -8.533,8.534 z"
         id="path156" /></g><g
       id="g158"
       transform="translate(99.986103,597.40171)"><path
         style="fill:#7dbb34"
         d="m 418.133,375.467 h -51.2 c -4.713,0 -8.533,-3.821 -8.533,-8.533 v -51.2 c 0,-4.713 3.821,-8.533 8.533,-8.533 h 51.2 c 4.713,0 8.533,3.821 8.533,8.533 v 51.2 c 10e-4,4.712 -3.82,8.533 -8.533,8.533 z"
         id="path157" /><path
         style="fill:#60a333"
         d="m 418.133,358.4 h -42.667 v -42.667 c 0,-4.713 3.821,-8.533 8.533,-8.533 h -17.067 c -4.713,0 -8.533,3.821 -8.533,8.533 v 34.133 17.067 c 0,4.713 3.821,8.533 8.533,8.533 H 384 418.133 c 4.713,0 8.533,-3.821 8.533,-8.533 v -17.067 c 10e-4,4.713 -3.82,8.534 -8.533,8.534 z"
         id="path158" /></g><g
       id="g160"
       transform="translate(168.2551,597.40171)"><path
         style="fill:#7dbb34"
         d="m 418.133,375.467 h -51.2 c -4.713,0 -8.533,-3.821 -8.533,-8.533 v -51.2 c 0,-4.713 3.821,-8.533 8.533,-8.533 h 51.2 c 4.713,0 8.533,3.821 8.533,8.533 v 51.2 c 10e-4,4.712 -3.82,8.533 -8.533,8.533 z"
         id="path159" /><path
         style="fill:#60a333"
         d="m 418.133,358.4 h -42.667 v -42.667 c 0,-4.713 3.821,-8.533 8.533,-8.533 h -17.067 c -4.713,0 -8.533,3.821 -8.533,8.533 v 34.133 17.067 c 0,4.713 3.821,8.533 8.533,8.533 H 384 418.133 c 4.713,0 8.533,-3.821 8.533,-8.533 v -17.067 c 10e-4,4.713 -3.82,8.534 -8.533,8.534 z"
         id="path160" /></g><g
       id="g162"
       transform="translate(236.5241,597.40171)"><path
         style="fill:#7dbb34"
         d="m 418.133,375.467 h -51.2 c -4.713,0 -8.533,-3.821 -8.533,-8.533 v -51.2 c 0,-4.713 3.821,-8.533 8.533,-8.533 h 51.2 c 4.713,0 8.533,3.821 8.533,8.533 v 51.2 c 10e-4,4.712 -3.82,8.533 -8.533,8.533 z"
         id="path161" /><path
         style="fill:#60a333"
         d="m 418.133,358.4 h -42.667 v -42.667 c 0,-4.713 3.821,-8.533 8.533,-8.533 h -17.067 c -4.713,0 -8.533,3.821 -8.533,8.533 v 34.133 17.067 c 0,4.713 3.821,8.533 8.533,8.533 H 384 418.133 c 4.713,0 8.533,-3.821 8.533,-8.533 v -17.067 c 10e-4,4.713 -3.82,8.534 -8.533,8.534 z"
         id="path162" /></g></g><g
     id="g179"
     transform="translate(83.359307,1200.6146)"><g
       id="g164"
       transform="translate(270.57761,85.433375)"><path
         style="fill:#45cae0"
         d="m 221.867,196.267 h -51.2 c -4.713,0 -8.533,-3.821 -8.533,-8.533 v -51.2 c 0,-4.713 3.821,-8.533 8.533,-8.533 h 51.2 c 4.713,0 8.533,3.821 8.533,8.533 v 51.2 c 0,4.712 -3.821,8.533 -8.533,8.533 z"
         id="path163" /><path
         style="fill:#0aadbf"
         d="M 221.867,179.2 H 179.2 v -42.667 c 0,-4.713 3.821,-8.533 8.533,-8.533 h -17.067 c -4.713,0 -8.533,3.821 -8.533,8.533 v 34.133 17.067 c 0,4.713 3.821,8.533 8.533,8.533 h 17.067 34.133 c 4.713,0 8.533,-3.821 8.533,-8.533 v -17.067 c 0.001,4.713 -3.82,8.534 -8.532,8.534 z"
         id="path164" /></g><g
       id="g166"
       transform="translate(270.57761,153.70237)"><path
         style="fill:#45cae0"
         d="m 221.867,196.267 h -51.2 c -4.713,0 -8.533,-3.821 -8.533,-8.533 v -51.2 c 0,-4.713 3.821,-8.533 8.533,-8.533 h 51.2 c 4.713,0 8.533,3.821 8.533,8.533 v 51.2 c 0,4.712 -3.821,8.533 -8.533,8.533 z"
         id="path165" /><path
         style="fill:#0aadbf"
         d="M 221.867,179.2 H 179.2 v -42.667 c 0,-4.713 3.821,-8.533 8.533,-8.533 h -17.067 c -4.713,0 -8.533,3.821 -8.533,8.533 v 34.133 17.067 c 0,4.713 3.821,8.533 8.533,8.533 h 17.067 34.133 c 4.713,0 8.533,-3.821 8.533,-8.533 v -17.067 c 0.001,4.713 -3.82,8.534 -8.532,8.534 z"
         id="path166" /></g><g
       id="g168"
       transform="translate(270.96478,221.97137)"><path
         style="fill:#45cae0"
         d="m 221.867,196.267 h -51.2 c -4.713,0 -8.533,-3.821 -8.533,-8.533 v -51.2 c 0,-4.713 3.821,-8.533 8.533,-8.533 h 51.2 c 4.713,0 8.533,3.821 8.533,8.533 v 51.2 c 0,4.712 -3.821,8.533 -8.533,8.533 z"
         id="path167" /><path
         style="fill:#0aadbf"
         d="M 221.867,179.2 H 179.2 v -42.667 c 0,-4.713 3.821,-8.533 8.533,-8.533 h -17.067 c -4.713,0 -8.533,3.821 -8.533,8.533 v 34.133 17.067 c 0,4.713 3.821,8.533 8.533,8.533 h 17.067 34.133 c 4.713,0 8.533,-3.821 8.533,-8.533 v -17.067 c 0.001,4.713 -3.82,8.534 -8.532,8.534 z"
         id="path168" /></g><g
       id="g170"
       transform="translate(270.96478,290.24037)"><path
         style="fill:#45cae0"
         d="m 221.867,196.267 h -51.2 c -4.713,0 -8.533,-3.821 -8.533,-8.533 v -51.2 c 0,-4.713 3.821,-8.533 8.533,-8.533 h 51.2 c 4.713,0 8.533,3.821 8.533,8.533 v 51.2 c 0,4.712 -3.821,8.533 -8.533,8.533 z"
         id="path169" /><path
         style="fill:#0aadbf"
         d="M 221.867,179.2 H 179.2 v -42.667 c 0,-4.713 3.821,-8.533 8.533,-8.533 h -17.067 c -4.713,0 -8.533,3.821 -8.533,8.533 v 34.133 17.067 c 0,4.713 3.821,8.533 8.533,8.533 h 17.067 34.133 c 4.713,0 8.533,-3.821 8.533,-8.533 v -17.067 c 0.001,4.713 -3.82,8.534 -8.532,8.534 z"
         id="path170" /></g><g
       id="g172"
       transform="translate(338.84661,85.433375)"><path
         style="fill:#45cae0"
         d="m 221.867,196.267 h -51.2 c -4.713,0 -8.533,-3.821 -8.533,-8.533 v -51.2 c 0,-4.713 3.821,-8.533 8.533,-8.533 h 51.2 c 4.713,0 8.533,3.821 8.533,8.533 v 51.2 c 0,4.712 -3.821,8.533 -8.533,8.533 z"
         id="path171" /><path
         style="fill:#0aadbf"
         d="M 221.867,179.2 H 179.2 v -42.667 c 0,-4.713 3.821,-8.533 8.533,-8.533 h -17.067 c -4.713,0 -8.533,3.821 -8.533,8.533 v 34.133 17.067 c 0,4.713 3.821,8.533 8.533,8.533 h 17.067 34.133 c 4.713,0 8.533,-3.821 8.533,-8.533 v -17.067 c 0.001,4.713 -3.82,8.534 -8.532,8.534 z"
         id="path172" /></g><g
       id="g174"
       transform="translate(338.84661,153.70237)"><path
         style="fill:#45cae0"
         d="m 221.867,196.267 h -51.2 c -4.713,0 -8.533,-3.821 -8.533,-8.533 v -51.2 c 0,-4.713 3.821,-8.533 8.533,-8.533 h 51.2 c 4.713,0 8.533,3.821 8.533,8.533 v 51.2 c 0,4.712 -3.821,8.533 -8.533,8.533 z"
         id="path173" /><path
         style="fill:#0aadbf"
         d="M 221.867,179.2 H 179.2 v -42.667 c 0,-4.713 3.821,-8.533 8.533,-8.533 h -17.067 c -4.713,0 -8.533,3.821 -8.533,8.533 v 34.133 17.067 c 0,4.713 3.821,8.533 8.533,8.533 h 17.067 34.133 c 4.713,0 8.533,-3.821 8.533,-8.533 v -17.067 c 0.001,4.713 -3.82,8.534 -8.532,8.534 z"
         id="path174" /></g><g
       id="g176"
       transform="translate(339.23378,221.97138)"><path
         style="fill:#45cae0"
         d="m 221.867,196.267 h -51.2 c -4.713,0 -8.533,-3.821 -8.533,-8.533 v -51.2 c 0,-4.713 3.821,-8.533 8.533,-8.533 h 51.2 c 4.713,0 8.533,3.821 8.533,8.533 v 51.2 c 0,4.712 -3.821,8.533 -8.533,8.533 z"
         id="path175" /><path
         style="fill:#0aadbf"
         d="M 221.867,179.2 H 179.2 v -42.667 c 0,-4.713 3.821,-8.533 8.533,-8.533 h -17.067 c -4.713,0 -8.533,3.821 -8.533,8.533 v 34.133 17.067 c 0,4.713 3.821,8.533 8.533,8.533 h 17.067 34.133 c 4.713,0 8.533,-3.821 8.533,-8.533 v -17.067 c 0.001,4.713 -3.82,8.534 -8.532,8.534 z"
         id="path176" /></g><g
       id="g178"
       transform="translate(339.23378,290.24037)"><path
         style="fill:#45cae0"
         d="m 221.867,196.267 h -51.2 c -4.713,0 -8.533,-3.821 -8.533,-8.533 v -51.2 c 0,-4.713 3.821,-8.533 8.533,-8.533 h 51.2 c 4.713,0 8.533,3.821 8.533,8.533 v 51.2 c 0,4.712 -3.821,8.533 -8.533,8.533 z"
         id="path177" /><path
         style="fill:#0aadbf"
         d="M 221.867,179.2 H 179.2 v -42.667 c 0,-4.713 3.821,-8.533 8.533,-8.533 h -17.067 c -4.713,0 -8.533,3.821 -8.533,8.533 v 34.133 17.067 c 0,4.713 3.821,8.533 8.533,8.533 h 17.067 34.133 c 4.713,0 8.533,-3.821 8.533,-8.533 v -17.067 c 0.001,4.713 -3.82,8.534 -8.532,8.534 z"
         id="path178" /></g></g><g
     id="g189"
     transform="translate(-41.344948,915.24883)"><g
       id="g180"
       transform="translate(198.89555,-149.69888)"><path
         style="fill:#f9d84e"
         d="M 76.8,375.467 H 25.6 c -4.713,0 -8.533,-3.821 -8.533,-8.533 v -51.2 c 0,-4.713 3.821,-8.533 8.533,-8.533 h 51.2 c 4.713,0 8.533,3.821 8.533,8.533 v 51.2 c 0,4.712 -3.82,8.533 -8.533,8.533 z"
         id="path179" /><path
         style="fill:#ffc20d"
         d="M 76.8,358.4 H 34.133 v -42.667 c 0,-4.713 3.821,-8.533 8.533,-8.533 H 25.6 c -4.713,0 -8.533,3.821 -8.533,8.533 v 34.133 17.067 c 0,4.713 3.821,8.533 8.533,8.533 H 42.667 76.8 c 4.713,0 8.533,-3.821 8.533,-8.533 v -17.067 c 0,4.713 -3.82,8.534 -8.533,8.534 z"
         id="path180" /></g><g
       id="g182"
       transform="translate(198.89555,-81.42988)"><path
         style="fill:#f9d84e"
         d="M 76.8,375.467 H 25.6 c -4.713,0 -8.533,-3.821 -8.533,-8.533 v -51.2 c 0,-4.713 3.821,-8.533 8.533,-8.533 h 51.2 c 4.713,0 8.533,3.821 8.533,8.533 v 51.2 c 0,4.712 -3.82,8.533 -8.533,8.533 z"
         id="path181" /><path
         style="fill:#ffc20d"
         d="M 76.8,358.4 H 34.133 v -42.667 c 0,-4.713 3.821,-8.533 8.533,-8.533 H 25.6 c -4.713,0 -8.533,3.821 -8.533,8.533 v 34.133 17.067 c 0,4.713 3.821,8.533 8.533,8.533 H 42.667 76.8 c 4.713,0 8.533,-3.821 8.533,-8.533 v -17.067 c 0,4.713 -3.82,8.534 -8.533,8.534 z"
         id="path182" /></g><g
       id="g184"
       transform="translate(198.89555,-13.16088)"><path
         style="fill:#f9d84e"
         d="M 76.8,375.467 H 25.6 c -4.713,0 -8.533,-3.821 -8.533,-8.533 v -51.2 c 0,-4.713 3.821,-8.533 8.533,-8.533 h 51.2 c 4.713,0 8.533,3.821 8.533,8.533 v 51.2 c 0,4.712 -3.82,8.533 -8.533,8.533 z"
         id="path183" /><path
         style="fill:#ffc20d"
         d="M 76.8,358.4 H 34.133 v -42.667 c 0,-4.713 3.821,-8.533 8.533,-8.533 H 25.6 c -4.713,0 -8.533,3.821 -8.533,8.533 v 34.133 17.067 c 0,4.713 3.821,8.533 8.533,8.533 H 42.667 76.8 c 4.713,0 8.533,-3.821 8.533,-8.533 v -17.067 c 0,4.713 -3.82,8.534 -8.533,8.534 z"
         id="path184" /></g><g
       id="g186"
       transform="translate(198.89555,55.10812)"><path
         style="fill:#f9d84e"
         d="M 76.8,375.467 H 25.6 c -4.713,0 -8.533,-3.821 -8.533,-8.533 v -51.2 c 0,-4.713 3.821,-8.533 8.533,-8.533 h 51.2 c 4.713,0 8.533,3.821 8.533,8.533 v 51.2 c 0,4.712 -3.82,8.533 -8.533,8.533 z"
         id="path185" /><path
         style="fill:#ffc20d"
         d="M 76.8,358.4 H 34.133 v -42.667 c 0,-4.713 3.821,-8.533 8.533,-8.533 H 25.6 c -4.713,0 -8.533,3.821 -8.533,8.533 v 34.133 17.067 c 0,4.713 3.821,8.533 8.533,8.533 H 42.667 76.8 c 4.713,0 8.533,-3.821 8.533,-8.533 v -17.067 c 0,4.713 -3.82,8.534 -8.533,8.534 z"
         id="path186" /></g><g
       id="g188"
       transform="translate(198.89555,123.37712)"><path
         style="fill:#f9d84e"
         d="M 76.8,375.467 H 25.6 c -4.713,0 -8.533,-3.821 -8.533,-8.533 v -51.2 c 0,-4.713 3.821,-8.533 8.533,-8.533 h 51.2 c 4.713,0 8.533,3.821 8.533,8.533 v 51.2 c 0,4.712 -3.82,8.533 -8.533,8.533 z"
         id="path187" /><path
         style="fill:#ffc20d"
         d="M 76.8,358.4 H 34.133 v -42.667 c 0,-4.713 3.821,-8.533 8.533,-8.533 H 25.6 c -4.713,0 -8.533,3.821 -8.533,8.533 v 34.133 17.067 c 0,4.713 3.821,8.533 8.533,8.533 H 42.667 76.8 c 4.713,0 8.533,-3.821 8.533,-8.533 v -17.067 c 0,4.713 -3.82,8.534 -8.533,8.534 z"
         id="path188" /></g></g><g
     id="g201"
     transform="translate(49.908954,883.64319)"><g
       id="g190"
       transform="translate(5.6997537,600.1041)"><path
         style="fill:#fd5e95"
         d="m 315.733,68.267 h -51.2 C 259.82,68.267 256,64.446 256,59.734 V 8.534 C 256,3.821 259.821,0 264.533,0 h 51.2 c 4.713,0 8.533,3.821 8.533,8.533 v 51.2 c 10e-4,4.713 -3.82,8.534 -8.533,8.534 z"
         id="path189" /><path
         style="fill:#d14d7b"
         d="M 315.733,51.2 H 273.066 V 8.533 C 273.066,3.82 276.887,0 281.599,0 H 264.532 C 259.821,0 256,3.821 256,8.533 v 34.133 17.067 c 0,4.713 3.821,8.533 8.533,8.533 h 17.067 34.133 c 4.713,0 8.533,-3.821 8.533,-8.533 V 42.667 c 10e-4,4.712 -3.82,8.533 -8.533,8.533 z"
         id="path190" /></g><g
       id="g192"
       transform="translate(5.6997537,668.37309)"><path
         style="fill:#fd5e95"
         d="m 315.733,68.267 h -51.2 C 259.82,68.267 256,64.446 256,59.734 V 8.534 C 256,3.821 259.821,0 264.533,0 h 51.2 c 4.713,0 8.533,3.821 8.533,8.533 v 51.2 c 10e-4,4.713 -3.82,8.534 -8.533,8.534 z"
         id="path191" /><path
         style="fill:#d14d7b"
         d="M 315.733,51.2 H 273.066 V 8.533 C 273.066,3.82 276.887,0 281.599,0 H 264.532 C 259.821,0 256,3.821 256,8.533 v 34.133 17.067 c 0,4.713 3.821,8.533 8.533,8.533 h 17.067 34.133 c 4.713,0 8.533,-3.821 8.533,-8.533 V 42.667 c 10e-4,4.712 -3.82,8.533 -8.533,8.533 z"
         id="path192" /></g><g
       id="g194"
       transform="translate(73.967754,600.1041)"><path
         style="fill:#fd5e95"
         d="m 315.733,68.267 h -51.2 C 259.82,68.267 256,64.446 256,59.734 V 8.534 C 256,3.821 259.821,0 264.533,0 h 51.2 c 4.713,0 8.533,3.821 8.533,8.533 v 51.2 c 10e-4,4.713 -3.82,8.534 -8.533,8.534 z"
         id="path193" /><path
         style="fill:#d14d7b"
         d="M 315.733,51.2 H 273.066 V 8.533 C 273.066,3.82 276.887,0 281.599,0 H 264.532 C 259.821,0 256,3.821 256,8.533 v 34.133 17.067 c 0,4.713 3.821,8.533 8.533,8.533 h 17.067 34.133 c 4.713,0 8.533,-3.821 8.533,-8.533 V 42.667 c 10e-4,4.712 -3.82,8.533 -8.533,8.533 z"
         id="path194" /></g><g
       id="g196"
       transform="translate(73.967754,668.3731)"><path
         style="fill:#fd5e95"
         d="m 315.733,68.267 h -51.2 C 259.82,68.267 256,64.446 256,59.734 V 8.534 C 256,3.821 259.821,0 264.533,0 h 51.2 c 4.713,0 8.533,3.821 8.533,8.533 v 51.2 c 10e-4,4.713 -3.82,8.534 -8.533,8.534 z"
         id="path195" /><path
         style="fill:#d14d7b"
         d="M 315.733,51.2 H 273.066 V 8.533 C 273.066,3.82 276.887,0 281.599,0 H 264.532 C 259.821,0 256,3.821 256,8.533 v 34.133 17.067 c 0,4.713 3.821,8.533 8.533,8.533 h 17.067 34.133 c 4.713,0 8.533,-3.821 8.533,-8.533 V 42.667 c 10e-4,4.712 -3.82,8.533 -8.533,8.533 z"
         id="path196" /></g><g
       id="g198"
       transform="translate(142.23575,600.1041)"><path
         style="fill:#fd5e95"
         d="m 315.733,68.267 h -51.2 C 259.82,68.267 256,64.446 256,59.734 V 8.534 C 256,3.821 259.821,0 264.533,0 h 51.2 c 4.713,0 8.533,3.821 8.533,8.533 v 51.2 c 10e-4,4.713 -3.82,8.534 -8.533,8.534 z"
         id="path197" /><path
         style="fill:#d14d7b"
         d="M 315.733,51.2 H 273.066 V 8.533 C 273.066,3.82 276.887,0 281.599,0 H 264.532 C 259.821,0 256,3.821 256,8.533 v 34.133 17.067 c 0,4.713 3.821,8.533 8.533,8.533 h 17.067 34.133 c 4.713,0 8.533,-3.821 8.533,-8.533 V 42.667 c 10e-4,4.712 -3.82,8.533 -8.533,8.533 z"
         id="path198" /></g><g
       id="g200"
       transform="translate(142.23575,668.3731)"><path
         style="fill:#fd5e95"
         d="m 315.733,68.267 h -51.2 C 259.82,68.267 256,64.446 256,59.734 V 8.534 C 256,3.821 259.821,0 264.533,0 h 51.2 c 4.713,0 8.533,3.821 8.533,8.533 v 51.2 c 10e-4,4.713 -3.82,8.534 -8.533,8.534 z"
         id="path199" /><path
         style="fill:#d14d7b"
         d="M 315.733,51.2 H 273.066 V 8.533 C 273.066,3.82 276.887,0 281.599,0 H 264.532 C 259.821,0 256,3.821 256,8.533 v 34.133 17.067 c 0,4.713 3.821,8.533 8.533,8.533 h 17.067 34.133 c 4.713,0 8.533,-3.821 8.533,-8.533 V 42.667 c 10e-4,4.712 -3.82,8.533 -8.533,8.533 z"
         id="path200" /></g></g><path
     style="fill:#cccccc;stroke:#000000;stroke-width:7.55906;stroke-dasharray:none;stroke-opacity:1;marker-end:url(#ArrowWideRounded)"
     d="M 106.45592,1753.3484 H 602.80888"
     id="path201" /><path
     style="fill:#cccccc;stroke:#000000;stroke-width:7.55906;stroke-dasharray:none;stroke-opacity:1;marker-end:url(#ArrowWideRounded)"
     d="M 46.48962,1687.122 V 1190.769"
     id="path202" /><text
     xml:space="preserve"
     style="font-style:normal;font-variant:normal;font-weight:normal;font-stretch:normal;font-size:42.6667px;font-family:'DejaVu Sans';-inkscape-font-specification:'DejaVu Sans';fill:#000000;stroke:none;stroke-width:0.755906;stroke-dasharray:none;stroke-opacity:1"
     x="627.18304"
     y="1767.2546"
     id="text202"><tspan
       sodipodi:role="line"
       id="tspan202"
       x="627.18304"
       y="1767.2546"
       style="font-size:42.6667px">number of cores</tspan></text><text
     xml:space="preserve"
     style="font-style:normal;font-variant:normal;font-weight:normal;font-stretch:normal;font-size:42.6667px;font-family:'DejaVu Sans';-inkscape-font-specification:'DejaVu Sans';fill:#000000;stroke:none;stroke-width:0.755906;stroke-dasharray:none;stroke-opacity:1"
     x="-1.1458342"
     y="1166.0106"
     id="text203"><tspan
       sodipodi:role="line"
       id="tspan203"
       x="-1.1458342"
       y="1166.0106"
       style="font-size:42.6667px">time</tspan></text><g
     id="g213"
     transform="translate(437.14227,1188.2779)"><g
       id="g204"
       transform="translate(198.89555,-149.69888)"><path
         style="fill:#f9d84e"
         d="M 76.8,375.467 H 25.6 c -4.713,0 -8.533,-3.821 -8.533,-8.533 v -51.2 c 0,-4.713 3.821,-8.533 8.533,-8.533 h 51.2 c 4.713,0 8.533,3.821 8.533,8.533 v 51.2 c 0,4.712 -3.82,8.533 -8.533,8.533 z"
         id="path203" /><path
         style="fill:#ffc20d"
         d="M 76.8,358.4 H 34.133 v -42.667 c 0,-4.713 3.821,-8.533 8.533,-8.533 H 25.6 c -4.713,0 -8.533,3.821 -8.533,8.533 v 34.133 17.067 c 0,4.713 3.821,8.533 8.533,8.533 H 42.667 76.8 c 4.713,0 8.533,-3.821 8.533,-8.533 v -17.067 c 0,4.713 -3.82,8.534 -8.533,8.534 z"
         id="path204" /></g><g
       id="g206"
       transform="translate(198.89555,-81.42988)"><path
         style="fill:#f9d84e"
         d="M 76.8,375.467 H 25.6 c -4.713,0 -8.533,-3.821 -8.533,-8.533 v -51.2 c 0,-4.713 3.821,-8.533 8.533,-8.533 h 51.2 c 4.713,0 8.533,3.821 8.533,8.533 v 51.2 c 0,4.712 -3.82,8.533 -8.533,8.533 z"
         id="path205" /><path
         style="fill:#ffc20d"
         d="M 76.8,358.4 H 34.133 v -42.667 c 0,-4.713 3.821,-8.533 8.533,-8.533 H 25.6 c -4.713,0 -8.533,3.821 -8.533,8.533 v 34.133 17.067 c 0,4.713 3.821,8.533 8.533,8.533 H 42.667 76.8 c 4.713,0 8.533,-3.821 8.533,-8.533 v -17.067 c 0,4.713 -3.82,8.534 -8.533,8.534 z"
         id="path206" /></g><g
       id="g208"
       transform="translate(198.89555,-13.16088)"><path
         style="fill:#f9d84e"
         d="M 76.8,375.467 H 25.6 c -4.713,0 -8.533,-3.821 -8.533,-8.533 v -51.2 c 0,-4.713 3.821,-8.533 8.533,-8.533 h 51.2 c 4.713,0 8.533,3.821 8.533,8.533 v 51.2 c 0,4.712 -3.82,8.533 -8.533,8.533 z"
         id="path207" /><path
         style="fill:#ffc20d"
         d="M 76.8,358.4 H 34.133 v -42.667 c 0,-4.713 3.821,-8.533 8.533,-8.533 H 25.6 c -4.713,0 -8.533,3.821 -8.533,8.533 v 34.133 17.067 c 0,4.713 3.821,8.533 8.533,8.533 H 42.667 76.8 c 4.713,0 8.533,-3.821 8.533,-8.533 v -17.067 c 0,4.713 -3.82,8.534 -8.533,8.534 z"
         id="path208" /></g><g
       id="g210"
       transform="translate(198.89555,55.10812)"><path
         style="fill:#f9d84e"
         d="M 76.8,375.467 H 25.6 c -4.713,0 -8.533,-3.821 -8.533,-8.533 v -51.2 c 0,-4.713 3.821,-8.533 8.533,-8.533 h 51.2 c 4.713,0 8.533,3.821 8.533,8.533 v 51.2 c 0,4.712 -3.82,8.533 -8.533,8.533 z"
         id="path209" /><path
         style="fill:#ffc20d"
         d="M 76.8,358.4 H 34.133 v -42.667 c 0,-4.713 3.821,-8.533 8.533,-8.533 H 25.6 c -4.713,0 -8.533,3.821 -8.533,8.533 v 34.133 17.067 c 0,4.713 3.821,8.533 8.533,8.533 H 42.667 76.8 c 4.713,0 8.533,-3.821 8.533,-8.533 v -17.067 c 0,4.713 -3.82,8.534 -8.533,8.534 z"
         id="path210" /></g><g
       id="g212"
       transform="translate(198.89555,123.37712)"><path
         style="fill:#f9d84e"
         d="M 76.8,375.467 H 25.6 c -4.713,0 -8.533,-3.821 -8.533,-8.533 v -51.2 c 0,-4.713 3.821,-8.533 8.533,-8.533 h 51.2 c 4.713,0 8.533,3.821 8.533,8.533 v 51.2 c 0,4.712 -3.82,8.533 -8.533,8.533 z"
         id="path211" /><path
         style="fill:#ffc20d"
         d="M 76.8,358.4 H 34.133 v -42.667 c 0,-4.713 3.821,-8.533 8.533,-8.533 H 25.6 c -4.713,0 -8.533,3.821 -8.533,8.533 v 34.133 17.067 c 0,4.713 3.821,8.533 8.533,8.533 H 42.667 76.8 c 4.713,0 8.533,-3.821 8.533,-8.533 v -17.067 c 0,4.713 -3.82,8.534 -8.533,8.534 z"
         id="path212" /></g></g><g
     id="g224"
     transform="translate(-146.4356,510.39662)"><g
       id="g215"
       transform="translate(-36.551897,597.40171)"><path
         style="fill:#7dbb34"
         d="m 418.133,375.467 h -51.2 c -4.713,0 -8.533,-3.821 -8.533,-8.533 v -51.2 c 0,-4.713 3.821,-8.533 8.533,-8.533 h 51.2 c 4.713,0 8.533,3.821 8.533,8.533 v 51.2 c 10e-4,4.712 -3.82,8.533 -8.533,8.533 z"
         id="path214" /><path
         style="fill:#60a333"
         d="m 418.133,358.4 h -42.667 v -42.667 c 0,-4.713 3.821,-8.533 8.533,-8.533 h -17.067 c -4.713,0 -8.533,3.821 -8.533,8.533 v 34.133 17.067 c 0,4.713 3.821,8.533 8.533,8.533 H 384 418.133 c 4.713,0 8.533,-3.821 8.533,-8.533 v -17.067 c 10e-4,4.713 -3.82,8.534 -8.533,8.534 z"
         id="path215" /></g><g
       id="g217"
       transform="translate(31.717103,597.40171)"><path
         style="fill:#7dbb34"
         d="m 418.133,375.467 h -51.2 c -4.713,0 -8.533,-3.821 -8.533,-8.533 v -51.2 c 0,-4.713 3.821,-8.533 8.533,-8.533 h 51.2 c 4.713,0 8.533,3.821 8.533,8.533 v 51.2 c 10e-4,4.712 -3.82,8.533 -8.533,8.533 z"
         id="path216" /><path
         style="fill:#60a333"
         d="m 418.133,358.4 h -42.667 v -42.667 c 0,-4.713 3.821,-8.533 8.533,-8.533 h -17.067 c -4.713,0 -8.533,3.821 -8.533,8.533 v 34.133 17.067 c 0,4.713 3.821,8.533 8.533,8.533 H 384 418.133 c 4.713,0 8.533,-3.821 8.533,-8.533 v -17.067 c 10e-4,4.713 -3.82,8.534 -8.533,8.534 z"
         id="path217" /></g><g
       id="g219"
       transform="translate(99.986103,597.40171)"><path
         style="fill:#7dbb34"
         d="m 418.133,375.467 h -51.2 c -4.713,0 -8.533,-3.821 -8.533,-8.533 v -51.2 c 0,-4.713 3.821,-8.533 8.533,-8.533 h 51.2 c 4.713,0 8.533,3.821 8.533,8.533 v 51.2 c 10e-4,4.712 -3.82,8.533 -8.533,8.533 z"
         id="path218" /><path
         style="fill:#60a333"
         d="m 418.133,358.4 h -42.667 v -42.667 c 0,-4.713 3.821,-8.533 8.533,-8.533 h -17.067 c -4.713,0 -8.533,3.821 -8.533,8.533 v 34.133 17.067 c 0,4.713 3.821,8.533 8.533,8.533 H 384 418.133 c 4.713,0 8.533,-3.821 8.533,-8.533 v -17.067 c 10e-4,4.713 -3.82,8.534 -8.533,8.534 z"
         id="path219" /></g><g
       id="g221"
       transform="translate(168.2551,597.40171)"><path
         style="fill:#7dbb34"
         d="m 418.133,375.467 h -51.2 c -4.713,0 -8.533,-3.821 -8.533,-8.533 v -51.2 c 0,-4.713 3.821,-8.533 8.533,-8.533 h 51.2 c 4.713,0 8.533,3.821 8.533,8.533 v 51.2 c 10e-4,4.712 -3.82,8.533 -8.533,8.533 z"
         id="path220" /><path
         style="fill:#60a333"
         d="m 418.133,358.4 h -42.667 v -42.667 c 0,-4.713 3.821,-8.533 8.533,-8.533 h -17.067 c -4.713,0 -8.533,3.821 -8.533,8.533 v 34.133 17.067 c 0,4.713 3.821,8.533 8.533,8.533 H 384 418.133 c 4.713,0 8.533,-3.821 8.533,-8.533 v -17.067 c 10e-4,4.713 -3.82,8.534 -8.533,8.534 z"
         id="path221" /></g><g
       id="g223"
       transform="translate(236.5241,597.40171)"><path
         style="fill:#7dbb34"
         d="m 418.133,375.467 h -51.2 c -4.713,0 -8.533,-3.821 -8.533,-8.533 v -51.2 c 0,-4.713 3.821,-8.533 8.533,-8.533 h 51.2 c 4.713,0 8.533,3.821 8.533,8.533 v 51.2 c 10e-4,4.712 -3.82,8.533 -8.533,8.533 z"
         id="path222" /><path
         style="fill:#60a333"
         d="m 418.133,358.4 h -42.667 v -42.667 c 0,-4.713 3.821,-8.533 8.533,-8.533 h -17.067 c -4.713,0 -8.533,3.821 -8.533,8.533 v 34.133 17.067 c 0,4.713 3.821,8.533 8.533,8.533 H 384 418.133 c 4.713,0 8.533,-3.821 8.533,-8.533 v -17.067 c 10e-4,4.713 -3.82,8.534 -8.533,8.534 z"
         id="path223" /></g></g><g
     id="g241"
     transform="translate(-52.632033,71.97408)"><g
       id="g225"
       transform="translate(203.52557,872.75464)"><path
         style="fill:#45cae0"
         d="m 221.867,196.267 h -51.2 c -4.713,0 -8.533,-3.821 -8.533,-8.533 v -51.2 c 0,-4.713 3.821,-8.533 8.533,-8.533 h 51.2 c 4.713,0 8.533,3.821 8.533,8.533 v 51.2 c 0,4.712 -3.821,8.533 -8.533,8.533 z"
         id="path224" /><path
         style="fill:#0aadbf"
         d="M 221.867,179.2 H 179.2 v -42.667 c 0,-4.713 3.821,-8.533 8.533,-8.533 h -17.067 c -4.713,0 -8.533,3.821 -8.533,8.533 v 34.133 17.067 c 0,4.713 3.821,8.533 8.533,8.533 h 17.067 34.133 c 4.713,0 8.533,-3.821 8.533,-8.533 v -17.067 c 0.001,4.713 -3.82,8.534 -8.532,8.534 z"
         id="path225" /></g><g
       id="g227"
       transform="translate(203.52557,941.02364)"><path
         style="fill:#45cae0"
         d="m 221.867,196.267 h -51.2 c -4.713,0 -8.533,-3.821 -8.533,-8.533 v -51.2 c 0,-4.713 3.821,-8.533 8.533,-8.533 h 51.2 c 4.713,0 8.533,3.821 8.533,8.533 v 51.2 c 0,4.712 -3.821,8.533 -8.533,8.533 z"
         id="path226" /><path
         style="fill:#0aadbf"
         d="M 221.867,179.2 H 179.2 v -42.667 c 0,-4.713 3.821,-8.533 8.533,-8.533 h -17.067 c -4.713,0 -8.533,3.821 -8.533,8.533 v 34.133 17.067 c 0,4.713 3.821,8.533 8.533,8.533 h 17.067 34.133 c 4.713,0 8.533,-3.821 8.533,-8.533 v -17.067 c 0.001,4.713 -3.82,8.534 -8.532,8.534 z"
         id="path227" /></g><g
       id="g233"
       transform="translate(271.79457,872.75464)"><path
         style="fill:#45cae0"
         d="m 221.867,196.267 h -51.2 c -4.713,0 -8.533,-3.821 -8.533,-8.533 v -51.2 c 0,-4.713 3.821,-8.533 8.533,-8.533 h 51.2 c 4.713,0 8.533,3.821 8.533,8.533 v 51.2 c 0,4.712 -3.821,8.533 -8.533,8.533 z"
         id="path232" /><path
         style="fill:#0aadbf"
         d="M 221.867,179.2 H 179.2 v -42.667 c 0,-4.713 3.821,-8.533 8.533,-8.533 h -17.067 c -4.713,0 -8.533,3.821 -8.533,8.533 v 34.133 17.067 c 0,4.713 3.821,8.533 8.533,8.533 h 17.067 34.133 c 4.713,0 8.533,-3.821 8.533,-8.533 v -17.067 c 0.001,4.713 -3.82,8.534 -8.532,8.534 z"
         id="path233" /></g><g
       id="g235"
       transform="translate(271.79457,941.02364)"><path
         style="fill:#45cae0"
         d="m 221.867,196.267 h -51.2 c -4.713,0 -8.533,-3.821 -8.533,-8.533 v -51.2 c 0,-4.713 3.821,-8.533 8.533,-8.533 h 51.2 c 4.713,0 8.533,3.821 8.533,8.533 v 51.2 c 0,4.712 -3.821,8.533 -8.533,8.533 z"
         id="path234" /><path
         style="fill:#0aadbf"
         d="M 221.867,179.2 H 179.2 v -42.667 c 0,-4.713 3.821,-8.533 8.533,-8.533 h -17.067 c -4.713,0 -8.533,3.821 -8.533,8.533 v 34.133 17.067 c 0,4.713 3.821,8.533 8.533,8.533 h 17.067 34.133 c 4.713,0 8.533,-3.821 8.533,-8.533 v -17.067 c 0.001,4.713 -3.82,8.534 -8.532,8.534 z"
         id="path235" /></g><g
       id="g229"
       transform="translate(340.06357,872.75464)"><path
         style="fill:#45cae0"
         d="m 221.867,196.267 h -51.2 c -4.713,0 -8.533,-3.821 -8.533,-8.533 v -51.2 c 0,-4.713 3.821,-8.533 8.533,-8.533 h 51.2 c 4.713,0 8.533,3.821 8.533,8.533 v 51.2 c 0,4.712 -3.821,8.533 -8.533,8.533 z"
         id="path228" /><path
         style="fill:#0aadbf"
         d="M 221.867,179.2 H 179.2 v -42.667 c 0,-4.713 3.821,-8.533 8.533,-8.533 h -17.067 c -4.713,0 -8.533,3.821 -8.533,8.533 v 34.133 17.067 c 0,4.713 3.821,8.533 8.533,8.533 h 17.067 34.133 c 4.713,0 8.533,-3.821 8.533,-8.533 v -17.067 c 0.001,4.713 -3.82,8.534 -8.532,8.534 z"
         id="path229" /></g><g
       id="g231"
       transform="translate(340.06357,941.02364)"><path
         style="fill:#45cae0"
         d="m 221.867,196.267 h -51.2 c -4.713,0 -8.533,-3.821 -8.533,-8.533 v -51.2 c 0,-4.713 3.821,-8.533 8.533,-8.533 h 51.2 c 4.713,0 8.533,3.821 8.533,8.533 v 51.2 c 0,4.712 -3.821,8.533 -8.533,8.533 z"
         id="path230" /><path
         style="fill:#0aadbf"
         d="M 221.867,179.2 H 179.2 v -42.667 c 0,-4.713 3.821,-8.533 8.533,-8.533 h -17.067 c -4.713,0 -8.533,3.821 -8.533,8.533 v 34.133 17.067 c 0,4.713 3.821,8.533 8.533,8.533 h 17.067 34.133 c 4.713,0 8.533,-3.821 8.533,-8.533 v -17.067 c 0.001,4.713 -3.82,8.534 -8.532,8.534 z"
         id="path231" /></g><g
       id="g237"
       transform="translate(408.33257,872.75464)"><path
         style="fill:#45cae0"
         d="m 221.867,196.267 h -51.2 c -4.713,0 -8.533,-3.821 -8.533,-8.533 v -51.2 c 0,-4.713 3.821,-8.533 8.533,-8.533 h 51.2 c 4.713,0 8.533,3.821 8.533,8.533 v 51.2 c 0,4.712 -3.821,8.533 -8.533,8.533 z"
         id="path236" /><path
         style="fill:#0aadbf"
         d="M 221.867,179.2 H 179.2 v -42.667 c 0,-4.713 3.821,-8.533 8.533,-8.533 h -17.067 c -4.713,0 -8.533,3.821 -8.533,8.533 v 34.133 17.067 c 0,4.713 3.821,8.533 8.533,8.533 h 17.067 34.133 c 4.713,0 8.533,-3.821 8.533,-8.533 v -17.067 c 0.001,4.713 -3.82,8.534 -8.532,8.534 z"
         id="path237" /></g><g
       id="g239"
       transform="translate(408.33257,941.02364)"><path
         style="fill:#45cae0"
         d="m 221.867,196.267 h -51.2 c -4.713,0 -8.533,-3.821 -8.533,-8.533 v -51.2 c 0,-4.713 3.821,-8.533 8.533,-8.533 h 51.2 c 4.713,0 8.533,3.821 8.533,8.533 v 51.2 c 0,4.712 -3.821,8.533 -8.533,8.533 z"
         id="path238" /><path
         style="fill:#0aadbf"
         d="M 221.867,179.2 H 179.2 v -42.667 c 0,-4.713 3.821,-8.533 8.533,-8.533 h -17.067 c -4.713,0 -8.533,3.821 -8.533,8.533 v 34.133 17.067 c 0,4.713 3.821,8.533 8.533,8.533 h 17.067 34.133 c 4.713,0 8.533,-3.821 8.533,-8.533 v -17.067 c 0.001,4.713 -3.82,8.534 -8.532,8.534 z"
         id="path239" /></g></g></g><g
   id="g453"
   transform="scale(0.28111915)"><g
     id="g243"
     transform="translate(94.19386,2407.1499)"><path
       style="fill:#e6e6e6"
       d="m 71.99606,101.81771 h -51.2 c -4.713,0 -8.533,-3.821 -8.533,-8.533 v -51.2 c 0,-4.713 3.821,-8.533 8.533,-8.533 h 51.2 c 4.713,0 8.533,3.821 8.533,8.533 v 51.2 c 0.001,4.712 -3.82,8.533 -8.533,8.533 z"
       id="path242" /><path
       style="fill:#cccccc"
       d="m 71.99606,84.75071 h -42.667 v -42.667 c 0,-4.713 3.821,-8.533 8.533,-8.533 h -17.067 c -4.713,0 -8.533,3.821 -8.533,8.533 v 34.134 17.067 c 0,4.713 3.821,8.533 8.533,8.533 h 17.068 34.133 c 4.713,0 8.533,-3.821 8.533,-8.533 v -17.067 c 0.001,4.713 -3.82,8.533 -8.533,8.533 z"
       id="path243" /></g><g
     id="g247"
     transform="translate(-47.14308,1655.6226)"><path
       style="fill:#b169bf"
       d="m 213.333,512 h -51.2 c -4.713,0 -8.533,-3.821 -8.533,-8.533 v -51.2 c 0,-4.713 3.821,-8.533 8.533,-8.533 h 51.2 c 4.713,0 8.533,3.821 8.533,8.533 v 51.2 c 10e-4,4.712 -3.82,8.533 -8.533,8.533 z"
       id="path246" /><path
       style="fill:#844a8f"
       d="m 213.333,494.933 h -42.667 v -42.667 c 0,-4.713 3.821,-8.533 8.533,-8.533 h -17.067 c -4.713,0 -8.533,3.821 -8.533,8.533 v 34.134 17.067 c 0,4.713 3.821,8.533 8.533,8.533 h 17.068 34.133 c 4.713,0 8.533,-3.821 8.533,-8.533 V 486.4 c 10e-4,4.713 -3.82,8.533 -8.533,8.533 z"
       id="path247" /></g><g
     id="g259"
     transform="translate(-47.14308,2065.2366)"><path
       style="fill:#b169bf"
       d="m 213.333,512 h -51.2 c -4.713,0 -8.533,-3.821 -8.533,-8.533 v -51.2 c 0,-4.713 3.821,-8.533 8.533,-8.533 h 51.2 c 4.713,0 8.533,3.821 8.533,8.533 v 51.2 c 10e-4,4.712 -3.82,8.533 -8.533,8.533 z"
       id="path258" /><path
       style="fill:#844a8f"
       d="m 213.333,494.933 h -42.667 v -42.667 c 0,-4.713 3.821,-8.533 8.533,-8.533 h -17.067 c -4.713,0 -8.533,3.821 -8.533,8.533 v 34.134 17.067 c 0,4.713 3.821,8.533 8.533,8.533 h 17.068 34.133 c 4.713,0 8.533,-3.821 8.533,-8.533 V 486.4 c 10e-4,4.713 -3.82,8.533 -8.533,8.533 z"
       id="path259" /></g><g
     id="g295"
     transform="translate(89.38892,1928.6936)"><path
       style="fill:#f9d84e"
       d="M 76.8,375.467 H 25.6 c -4.713,0 -8.533,-3.821 -8.533,-8.533 v -51.2 c 0,-4.713 3.821,-8.533 8.533,-8.533 h 51.2 c 4.713,0 8.533,3.821 8.533,8.533 v 51.2 c 0,4.712 -3.82,8.533 -8.533,8.533 z"
       id="path294" /><path
       style="fill:#ffc20d"
       d="M 76.8,358.4 H 34.133 v -42.667 c 0,-4.713 3.821,-8.533 8.533,-8.533 H 25.6 c -4.713,0 -8.533,3.821 -8.533,8.533 v 34.133 17.067 c 0,4.713 3.821,8.533 8.533,8.533 H 42.667 76.8 c 4.713,0 8.533,-3.821 8.533,-8.533 v -17.067 c 0,4.713 -3.82,8.534 -8.533,8.534 z"
       id="path295" /></g><g
     id="g297"
     transform="translate(-149.54408,2372.4316)"><path
       style="fill:#fd5e95"
       d="m 315.733,68.267 h -51.2 C 259.82,68.267 256,64.446 256,59.734 V 8.534 C 256,3.821 259.821,0 264.533,0 h 51.2 c 4.713,0 8.533,3.821 8.533,8.533 v 51.2 c 10e-4,4.713 -3.82,8.534 -8.533,8.534 z"
       id="path296" /><path
       style="fill:#d14d7b"
       d="M 315.733,51.2 H 273.066 V 8.533 C 273.066,3.82 276.887,0 281.599,0 H 264.532 C 259.821,0 256,3.821 256,8.533 v 34.133 17.067 c 0,4.713 3.821,8.533 8.533,8.533 h 17.067 34.133 c 4.713,0 8.533,-3.821 8.533,-8.533 V 42.667 c 10e-4,4.712 -3.82,8.533 -8.533,8.533 z"
       id="path297" /></g><path
     style="fill:#cccccc;stroke:#000000;stroke-width:7.55906;stroke-dasharray:none;stroke-opacity:1;marker-end:url(#ArrowWideRounded)"
     d="M 106.45592,2643.4631 H 602.80888"
     id="path308" /><path
     style="fill:#cccccc;stroke:#000000;stroke-width:7.55906;stroke-dasharray:none;stroke-opacity:1;marker-end:url(#ArrowWideRounded)"
     d="m 46.48962,2577.2367 v -496.353"
     id="path309" /><text
     xml:space="preserve"
     style="font-style:normal;font-variant:normal;font-weight:normal;font-stretch:normal;font-size:42.6667px;font-family:'DejaVu Sans';-inkscape-font-specification:'DejaVu Sans';fill:#000000;stroke:none;stroke-width:0.755906;stroke-dasharray:none;stroke-opacity:1"
     x="627.18304"
     y="2657.3694"
     id="text309"><tspan
       sodipodi:role="line"
       id="tspan309"
       x="627.18304"
       y="2657.3694"
       style="font-size:42.6667px">number of cores</tspan></text><text
     xml:space="preserve"
     style="font-style:normal;font-variant:normal;font-weight:normal;font-stretch:normal;font-size:42.6667px;font-family:'DejaVu Sans';-inkscape-font-specification:'DejaVu Sans';fill:#000000;stroke:none;stroke-width:0.755906;stroke-dasharray:none;stroke-opacity:1"
     x="-1.1458342"
     y="2056.1252"
     id="text310"><tspan
       sodipodi:role="line"
       id="tspan310"
       x="-1.1458342"
       y="2056.1252"
       style="font-size:42.6667px">time</tspan></text><g
     id="g329"
     transform="translate(-251.94308,1996.9626)"><path
       style="fill:#7dbb34"
       d="m 418.133,375.467 h -51.2 c -4.713,0 -8.533,-3.821 -8.533,-8.533 v -51.2 c 0,-4.713 3.821,-8.533 8.533,-8.533 h 51.2 c 4.713,0 8.533,3.821 8.533,8.533 v 51.2 c 10e-4,4.712 -3.82,8.533 -8.533,8.533 z"
       id="path328" /><path
       style="fill:#60a333"
       d="m 418.133,358.4 h -42.667 v -42.667 c 0,-4.713 3.821,-8.533 8.533,-8.533 h -17.067 c -4.713,0 -8.533,3.821 -8.533,8.533 v 34.133 17.067 c 0,4.713 3.821,8.533 8.533,8.533 H 384 418.133 c 4.713,0 8.533,-3.821 8.533,-8.533 v -17.067 c 10e-4,4.713 -3.82,8.534 -8.533,8.534 z"
       id="path329" /></g><g
     id="g333"
     transform="translate(-55.67708,2039.6246)"><path
       style="fill:#45cae0"
       d="m 221.867,196.267 h -51.2 c -4.713,0 -8.533,-3.821 -8.533,-8.533 v -51.2 c 0,-4.713 3.821,-8.533 8.533,-8.533 h 51.2 c 4.713,0 8.533,3.821 8.533,8.533 v 51.2 c 0,4.712 -3.821,8.533 -8.533,8.533 z"
       id="path332" /><path
       style="fill:#0aadbf"
       d="M 221.867,179.2 H 179.2 v -42.667 c 0,-4.713 3.821,-8.533 8.533,-8.533 h -17.067 c -4.713,0 -8.533,3.821 -8.533,8.533 v 34.133 17.067 c 0,4.713 3.821,8.533 8.533,8.533 h 17.067 34.133 c 4.713,0 8.533,-3.821 8.533,-8.533 v -17.067 c 0.001,4.713 -3.82,8.534 -8.532,8.534 z"
       id="path333" /></g></g><g
   id="g518"
   transform="scale(0.28111915)"><g
     id="g454"
     transform="translate(1417.075,2407.1499)"><path
       style="fill:#e6e6e6"
       d="m 71.99606,101.81771 h -51.2 c -4.713,0 -8.533,-3.821 -8.533,-8.533 v -51.2 c 0,-4.713 3.821,-8.533 8.533,-8.533 h 51.2 c 4.713,0 8.533,3.821 8.533,8.533 v 51.2 c 0.001,4.712 -3.82,8.533 -8.533,8.533 z"
       id="path453" /><path
       style="fill:#cccccc"
       d="m 71.99606,84.75071 h -42.667 v -42.667 c 0,-4.713 3.821,-8.533 8.533,-8.533 h -17.067 c -4.713,0 -8.533,3.821 -8.533,8.533 v 34.134 17.067 c 0,4.713 3.821,8.533 8.533,8.533 h 17.068 34.133 c 4.713,0 8.533,-3.821 8.533,-8.533 v -17.067 c 0.001,4.713 -3.82,8.533 -8.533,8.533 z"
       id="path454" /></g><g
     id="g456"
     transform="translate(1541.0707,1655.6226)"><path
       style="fill:#b169bf"
       d="m 213.333,512 h -51.2 c -4.713,0 -8.533,-3.821 -8.533,-8.533 v -51.2 c 0,-4.713 3.821,-8.533 8.533,-8.533 h 51.2 c 4.713,0 8.533,3.821 8.533,8.533 v 51.2 c 10e-4,4.712 -3.82,8.533 -8.533,8.533 z"
       id="path455" /><path
       style="fill:#844a8f"
       d="m 213.333,494.933 h -42.667 v -42.667 c 0,-4.713 3.821,-8.533 8.533,-8.533 h -17.067 c -4.713,0 -8.533,3.821 -8.533,8.533 v 34.134 17.067 c 0,4.713 3.821,8.533 8.533,8.533 h 17.068 34.133 c 4.713,0 8.533,-3.821 8.533,-8.533 V 486.4 c 10e-4,4.713 -3.82,8.533 -8.533,8.533 z"
       id="path456" /></g><g
     id="g458"
     transform="translate(1143.0707,2065.2366)"><path
       style="fill:#b169bf"
       d="m 213.333,512 h -51.2 c -4.713,0 -8.533,-3.821 -8.533,-8.533 v -51.2 c 0,-4.713 3.821,-8.533 8.533,-8.533 h 51.2 c 4.713,0 8.533,3.821 8.533,8.533 v 51.2 c 10e-4,4.712 -3.82,8.533 -8.533,8.533 z"
       id="path457" /><path
       style="fill:#844a8f"
       d="m 213.333,494.933 h -42.667 v -42.667 c 0,-4.713 3.821,-8.533 8.533,-8.533 h -17.067 c -4.713,0 -8.533,3.821 -8.533,8.533 v 34.134 17.067 c 0,4.713 3.821,8.533 8.533,8.533 h 17.068 34.133 c 4.713,0 8.533,-3.821 8.533,-8.533 V 486.4 c 10e-4,4.713 -3.82,8.533 -8.533,8.533 z"
       id="path458" /></g><g
     id="g460"
     transform="translate(1544.9364,1928.6936)"><path
       style="fill:#f9d84e"
       d="M 76.8,375.467 H 25.6 c -4.713,0 -8.533,-3.821 -8.533,-8.533 v -51.2 c 0,-4.713 3.821,-8.533 8.533,-8.533 h 51.2 c 4.713,0 8.533,3.821 8.533,8.533 v 51.2 c 0,4.712 -3.82,8.533 -8.533,8.533 z"
       id="path459" /><path
       style="fill:#ffc20d"
       d="M 76.8,358.4 H 34.133 v -42.667 c 0,-4.713 3.821,-8.533 8.533,-8.533 H 25.6 c -4.713,0 -8.533,3.821 -8.533,8.533 v 34.133 17.067 c 0,4.713 3.821,8.533 8.533,8.533 H 42.667 76.8 c 4.713,0 8.533,-3.821 8.533,-8.533 v -17.067 c 0,4.713 -3.82,8.534 -8.533,8.534 z"
       id="path460" /></g><g
     id="g462"
     transform="translate(1239.6707,2372.4316)"><path
       style="fill:#fd5e95"
       d="m 315.733,68.267 h -51.2 C 259.82,68.267 256,64.446 256,59.734 V 8.534 C 256,3.821 259.821,0 264.533,0 h 51.2 c 4.713,0 8.533,3.821 8.533,8.533 v 51.2 c 10e-4,4.713 -3.82,8.534 -8.533,8.534 z"
       id="path461" /><path
       style="fill:#d14d7b"
       d="M 315.733,51.2 H 273.066 V 8.533 C 273.066,3.82 276.887,0 281.599,0 H 264.532 C 259.821,0 256,3.821 256,8.533 v 34.133 17.067 c 0,4.713 3.821,8.533 8.533,8.533 h 17.067 34.133 c 4.713,0 8.533,-3.821 8.533,-8.533 V 42.667 c 10e-4,4.712 -3.82,8.533 -8.533,8.533 z"
       id="path462" /></g><path
     style="fill:#cccccc;stroke:#000000;stroke-width:7.55906;stroke-dasharray:none;stroke-opacity:1;marker-end:url(#ArrowWideRounded)"
     d="m 1296.6697,2643.4631 h 496.353"
     id="path463" /><path
     style="fill:#cccccc;stroke:#000000;stroke-width:7.55906;stroke-dasharray:none;stroke-opacity:1;marker-end:url(#ArrowWideRounded)"
     d="m 1236.7034,2577.2367 v -496.353"
     id="path464" /><text
     xml:space="preserve"
     style="font-style:normal;font-variant:normal;font-weight:normal;font-stretch:normal;font-size:42.6667px;font-family:'DejaVu Sans';-inkscape-font-specification:'DejaVu Sans';fill:#000000;stroke:none;stroke-width:0.755906;stroke-dasharray:none;stroke-opacity:1"
     x="1817.3969"
     y="2657.3694"
     id="text464"><tspan
       sodipodi:role="line"
       id="tspan464"
       x="1817.3969"
       y="2657.3694"
       style="font-size:42.6667px">number of cores</tspan></text><text
     xml:space="preserve"
     style="font-style:normal;font-variant:normal;font-weight:normal;font-stretch:normal;font-size:42.6667px;font-family:'DejaVu Sans';-inkscape-font-specification:'DejaVu Sans';fill:#000000;stroke:none;stroke-width:0.755906;stroke-dasharray:none;stroke-opacity:1"
     x="1189.068"
     y="2056.1252"
     id="text465"><tspan
       sodipodi:role="line"
       id="tspan465"
       x="1189.068"
       y="2056.1252"
       style="font-size:42.6667px">time</tspan></text><g
     id="g466"
     transform="translate(1269.937,1996.9626)"><path
       style="fill:#7dbb34"
       d="m 418.133,375.467 h -51.2 c -4.713,0 -8.533,-3.821 -8.533,-8.533 v -51.2 c 0,-4.713 3.821,-8.533 8.533,-8.533 h 51.2 c 4.713,0 8.533,3.821 8.533,8.533 v 51.2 c 10e-4,4.712 -3.82,8.533 -8.533,8.533 z"
       id="path465" /><path
       style="fill:#60a333"
       d="m 418.133,358.4 h -42.667 v -42.667 c 0,-4.713 3.821,-8.533 8.533,-8.533 h -17.067 c -4.713,0 -8.533,3.821 -8.533,8.533 v 34.133 17.067 c 0,4.713 3.821,8.533 8.533,8.533 H 384 418.133 c 4.713,0 8.533,-3.821 8.533,-8.533 v -17.067 c 10e-4,4.713 -3.82,8.534 -8.533,8.534 z"
       id="path466" /></g><g
     id="g468"
     transform="translate(1200.8704,2039.6246)"><path
       style="fill:#45cae0"
       d="m 221.867,196.267 h -51.2 c -4.713,0 -8.533,-3.821 -8.533,-8.533 v -51.2 c 0,-4.713 3.821,-8.533 8.533,-8.533 h 51.2 c 4.713,0 8.533,3.821 8.533,8.533 v 51.2 c 0,4.712 -3.821,8.533 -8.533,8.533 z"
       id="path467" /><path
       style="fill:#0aadbf"
       d="M 221.867,179.2 H 179.2 v -42.667 c 0,-4.713 3.821,-8.533 8.533,-8.533 h -17.067 c -4.713,0 -8.533,3.821 -8.533,8.533 v 34.133 17.067 c 0,4.713 3.821,8.533 8.533,8.533 h 17.067 34.133 c 4.713,0 8.533,-3.821 8.533,-8.533 v -17.067 c 0.001,4.713 -3.82,8.534 -8.532,8.534 z"
       id="path468" /></g></g><g
   id="g519"
   transform="scale(0.28111915)"><path
     style="fill:#cccccc;stroke:#000000;stroke-width:7.55906;stroke-dasharray:none;stroke-opacity:1;marker-end:url(#ArrowWideRounded)"
     d="M 106.45592,3581.0064 H 602.80888"
     id="path413" /><path
     style="fill:#cccccc;stroke:#000000;stroke-width:7.55906;stroke-dasharray:none;stroke-opacity:1;marker-end:url(#ArrowWideRounded)"
     d="M 46.48962,3514.78 V 3018.427"
     id="path414" /><text
     xml:space="preserve"
     style="font-style:normal;font-variant:normal;font-weight:normal;font-stretch:normal;font-size:42.6667px;font-family:'DejaVu Sans';-inkscape-font-specification:'DejaVu Sans';fill:#000000;stroke:none;stroke-width:0.755906;stroke-dasharray:none;stroke-opacity:1"
     x="627.18304"
     y="3594.9126"
     id="text414"><tspan
       sodipodi:role="line"
       id="tspan414"
       x="627.18304"
       y="3594.9126"
       style="font-size:42.6667px">number of cores</tspan></text><text
     xml:space="preserve"
     style="font-style:normal;font-variant:normal;font-weight:normal;font-stretch:normal;font-size:42.6667px;font-family:'DejaVu Sans';-inkscape-font-specification:'DejaVu Sans';fill:#000000;stroke:none;stroke-width:0.755906;stroke-dasharray:none;stroke-opacity:1"
     x="-1.1458342"
     y="2993.6687"
     id="text415"><tspan
       sodipodi:role="line"
       id="tspan415"
       x="-1.1458342"
       y="2993.6687"
       style="font-size:42.6667px">time</tspan></text><path
     style="fill:#b169bf"
     d="m 166.18992,3036.897 h -51.2 c -4.713,0 -8.533,-3.821 -8.533,-8.533 v -51.2 c 0,-4.713 3.821,-8.533 8.533,-8.533 h 51.2 c 4.713,0 8.533,3.821 8.533,8.533 v 51.2 c 0.001,4.712 -3.82,8.533 -8.533,8.533 z"
     id="path349" /><path
     style="fill:#844a8f"
     d="m 166.18992,3019.83 h -42.667 v -42.667 c 0,-4.713 3.821,-8.533 8.533,-8.533 h -17.067 c -4.713,0 -8.533,3.821 -8.533,8.533 v 34.134 17.067 c 0,4.713 3.821,8.533 8.533,8.533 h 17.068 34.133 c 4.713,0 8.533,-3.821 8.533,-8.533 v -17.067 c 0.001,4.713 -3.82,8.533 -8.533,8.533 z"
     id="path350" /><path
     style="fill:#b169bf"
     d="m 166.18992,3105.166 h -51.2 c -4.713,0 -8.533,-3.821 -8.533,-8.533 v -51.2 c 0,-4.713 3.821,-8.533 8.533,-8.533 h 51.2 c 4.713,0 8.533,3.821 8.533,8.533 v 51.2 c 0.001,4.712 -3.82,8.533 -8.533,8.533 z"
     id="path351" /><path
     style="fill:#844a8f"
     d="m 166.18992,3088.099 h -42.667 v -42.667 c 0,-4.713 3.821,-8.533 8.533,-8.533 h -17.067 c -4.713,0 -8.533,3.821 -8.533,8.533 v 34.134 17.067 c 0,4.713 3.821,8.533 8.533,8.533 h 17.068 34.133 c 4.713,0 8.533,-3.821 8.533,-8.533 v -17.067 c 0.001,4.713 -3.82,8.533 -8.533,8.533 z"
     id="path352" /><path
     style="fill:#b169bf"
     d="m 166.18992,3173.435 h -51.2 c -4.713,0 -8.533,-3.821 -8.533,-8.533 v -51.2 c 0,-4.713 3.821,-8.533 8.533,-8.533 h 51.2 c 4.713,0 8.533,3.821 8.533,8.533 v 51.2 c 0.001,4.712 -3.82,8.533 -8.533,8.533 z"
     id="path353" /><path
     style="fill:#844a8f"
     d="m 166.18992,3156.368 h -42.667 v -42.667 c 0,-4.713 3.821,-8.533 8.533,-8.533 h -17.067 c -4.713,0 -8.533,3.821 -8.533,8.533 v 34.134 17.067 c 0,4.713 3.821,8.533 8.533,8.533 h 17.068 34.133 c 4.713,0 8.533,-3.821 8.533,-8.533 v -17.067 c 0.001,4.713 -3.82,8.533 -8.533,8.533 z"
     id="path354" /><path
     style="fill:#b169bf"
     d="m 166.18992,3241.704 h -51.2 c -4.713,0 -8.533,-3.821 -8.533,-8.533 v -51.2 c 0,-4.713 3.821,-8.533 8.533,-8.533 h 51.2 c 4.713,0 8.533,3.821 8.533,8.533 v 51.2 c 0.001,4.712 -3.82,8.533 -8.533,8.533 z"
     id="path355" /><path
     style="fill:#844a8f"
     d="m 166.18992,3224.637 h -42.667 v -42.667 c 0,-4.713 3.821,-8.533 8.533,-8.533 h -17.067 c -4.713,0 -8.533,3.821 -8.533,8.533 v 34.134 17.067 c 0,4.713 3.821,8.533 8.533,8.533 h 17.068 34.133 c 4.713,0 8.533,-3.821 8.533,-8.533 v -17.067 c 0.001,4.713 -3.82,8.533 -8.533,8.533 z"
     id="path356" /><path
     style="fill:#b169bf"
     d="m 166.18992,3309.973 h -51.2 c -4.713,0 -8.533,-3.821 -8.533,-8.533 v -51.2 c 0,-4.713 3.821,-8.533 8.533,-8.533 h 51.2 c 4.713,0 8.533,3.821 8.533,8.533 v 51.2 c 0.001,4.712 -3.82,8.533 -8.533,8.533 z"
     id="path357" /><path
     style="fill:#844a8f"
     d="m 166.18992,3292.906 h -42.667 v -42.667 c 0,-4.713 3.821,-8.533 8.533,-8.533 h -17.067 c -4.713,0 -8.533,3.821 -8.533,8.533 v 34.134 17.067 c 0,4.713 3.821,8.533 8.533,8.533 h 17.068 34.133 c 4.713,0 8.533,-3.821 8.533,-8.533 v -17.067 c 0.001,4.713 -3.82,8.533 -8.533,8.533 z"
     id="path358" /><path
     style="fill:#b169bf"
     d="m 166.18992,3378.242 h -51.2 c -4.713,0 -8.533,-3.821 -8.533,-8.533 v -51.2 c 0,-4.713 3.821,-8.533 8.533,-8.533 h 51.2 c 4.713,0 8.533,3.821 8.533,8.533 v 51.2 c 0.001,4.712 -3.82,8.533 -8.533,8.533 z"
     id="path359" /><path
     style="fill:#844a8f"
     d="m 166.18992,3361.175 h -42.667 v -42.667 c 0,-4.713 3.821,-8.533 8.533,-8.533 h -17.067 c -4.713,0 -8.533,3.821 -8.533,8.533 v 34.134 17.067 c 0,4.713 3.821,8.533 8.533,8.533 h 17.068 34.133 c 4.713,0 8.533,-3.821 8.533,-8.533 v -17.067 c 0.001,4.713 -3.82,8.533 -8.533,8.533 z"
     id="path360" /><path
     style="fill:#b169bf"
     d="m 166.18992,3446.511 h -51.2 c -4.713,0 -8.533,-3.821 -8.533,-8.533 v -51.2 c 0,-4.713 3.821,-8.533 8.533,-8.533 h 51.2 c 4.713,0 8.533,3.821 8.533,8.533 v 51.2 c 0.001,4.712 -3.82,8.533 -8.533,8.533 z"
     id="path361" /><path
     style="fill:#844a8f"
     d="m 166.18992,3429.444 h -42.667 v -42.667 c 0,-4.713 3.821,-8.533 8.533,-8.533 h -17.067 c -4.713,0 -8.533,3.821 -8.533,8.533 v 34.134 17.067 c 0,4.713 3.821,8.533 8.533,8.533 h 17.068 34.133 c 4.713,0 8.533,-3.821 8.533,-8.533 v -17.067 c 0.001,4.713 -3.82,8.533 -8.533,8.533 z"
     id="path362" /><path
     style="fill:#b169bf"
     d="m 166.18992,3514.78 h -51.2 c -4.713,0 -8.533,-3.821 -8.533,-8.533 v -51.2 c 0,-4.713 3.821,-8.533 8.533,-8.533 h 51.2 c 4.713,0 8.533,3.821 8.533,8.533 v 51.2 c 0.001,4.712 -3.82,8.533 -8.533,8.533 z"
     id="path363" /><path
     style="fill:#844a8f"
     d="m 166.18992,3497.713 h -42.667 v -42.667 c 0,-4.713 3.821,-8.533 8.533,-8.533 h -17.067 c -4.713,0 -8.533,3.821 -8.533,8.533 v 34.134 17.067 c 0,4.713 3.821,8.533 8.533,8.533 h 17.068 34.133 c 4.713,0 8.533,-3.821 8.533,-8.533 v -17.067 c 0.001,4.713 -3.82,8.533 -8.533,8.533 z"
     id="path364" /><path
     style="fill:#b169bf"
     d="m 234.45892,3036.897 h -51.2 c -4.713,0 -8.533,-3.821 -8.533,-8.533 v -51.2 c 0,-4.713 3.821,-8.533 8.533,-8.533 h 51.2 c 4.713,0 8.533,3.821 8.533,8.533 v 51.2 c 0.001,4.712 -3.82,8.533 -8.533,8.533 z"
     id="path469" /><path
     style="fill:#844a8f"
     d="m 234.45892,3019.83 h -42.667 v -42.667 c 0,-4.713 3.821,-8.533 8.533,-8.533 h -17.067 c -4.713,0 -8.533,3.821 -8.533,8.533 v 34.134 17.067 c 0,4.713 3.821,8.533 8.533,8.533 h 17.068 34.133 c 4.713,0 8.533,-3.821 8.533,-8.533 v -17.067 c 0.001,4.713 -3.82,8.533 -8.533,8.533 z"
     id="path470" /><path
     style="fill:#b169bf"
     d="m 234.45892,3105.166 h -51.2 c -4.713,0 -8.533,-3.821 -8.533,-8.533 v -51.2 c 0,-4.713 3.821,-8.533 8.533,-8.533 h 51.2 c 4.713,0 8.533,3.821 8.533,8.533 v 51.2 c 0.001,4.712 -3.82,8.533 -8.533,8.533 z"
     id="path471" /><path
     style="fill:#844a8f"
     d="m 234.45892,3088.099 h -42.667 v -42.667 c 0,-4.713 3.821,-8.533 8.533,-8.533 h -17.067 c -4.713,0 -8.533,3.821 -8.533,8.533 v 34.134 17.067 c 0,4.713 3.821,8.533 8.533,8.533 h 17.068 34.133 c 4.713,0 8.533,-3.821 8.533,-8.533 v -17.067 c 0.001,4.713 -3.82,8.533 -8.533,8.533 z"
     id="path472" /><path
     style="fill:#b169bf"
     d="m 234.45892,3173.435 h -51.2 c -4.713,0 -8.533,-3.821 -8.533,-8.533 v -51.2 c 0,-4.713 3.821,-8.533 8.533,-8.533 h 51.2 c 4.713,0 8.533,3.821 8.533,8.533 v 51.2 c 0.001,4.712 -3.82,8.533 -8.533,8.533 z"
     id="path473" /><path
     style="fill:#844a8f"
     d="m 234.45892,3156.368 h -42.667 v -42.667 c 0,-4.713 3.821,-8.533 8.533,-8.533 h -17.067 c -4.713,0 -8.533,3.821 -8.533,8.533 v 34.134 17.067 c 0,4.713 3.821,8.533 8.533,8.533 h 17.068 34.133 c 4.713,0 8.533,-3.821 8.533,-8.533 v -17.067 c 0.001,4.713 -3.82,8.533 -8.533,8.533 z"
     id="path474" /><path
     style="fill:#b169bf"
     d="m 234.45892,3241.704 h -51.2 c -4.713,0 -8.533,-3.821 -8.533,-8.533 v -51.2 c 0,-4.713 3.821,-8.533 8.533,-8.533 h 51.2 c 4.713,0 8.533,3.821 8.533,8.533 v 51.2 c 0.001,4.712 -3.82,8.533 -8.533,8.533 z"
     id="path475" /><path
     style="fill:#844a8f"
     d="m 234.45892,3224.637 h -42.667 v -42.667 c 0,-4.713 3.821,-8.533 8.533,-8.533 h -17.067 c -4.713,0 -8.533,3.821 -8.533,8.533 v 34.134 17.067 c 0,4.713 3.821,8.533 8.533,8.533 h 17.068 34.133 c 4.713,0 8.533,-3.821 8.533,-8.533 v -17.067 c 0.001,4.713 -3.82,8.533 -8.533,8.533 z"
     id="path476" /><path
     style="fill:#b169bf"
     d="m 234.45892,3309.973 h -51.2 c -4.713,0 -8.533,-3.821 -8.533,-8.533 v -51.2 c 0,-4.713 3.821,-8.533 8.533,-8.533 h 51.2 c 4.713,0 8.533,3.821 8.533,8.533 v 51.2 c 0.001,4.712 -3.82,8.533 -8.533,8.533 z"
     id="path477" /><path
     style="fill:#844a8f"
     d="m 234.45892,3292.906 h -42.667 v -42.667 c 0,-4.713 3.821,-8.533 8.533,-8.533 h -17.067 c -4.713,0 -8.533,3.821 -8.533,8.533 v 34.134 17.067 c 0,4.713 3.821,8.533 8.533,8.533 h 17.068 34.133 c 4.713,0 8.533,-3.821 8.533,-8.533 v -17.067 c 0.001,4.713 -3.82,8.533 -8.533,8.533 z"
     id="path478" /><path
     style="fill:#b169bf"
     d="m 234.45892,3378.242 h -51.2 c -4.713,0 -8.533,-3.821 -8.533,-8.533 v -51.2 c 0,-4.713 3.821,-8.533 8.533,-8.533 h 51.2 c 4.713,0 8.533,3.821 8.533,8.533 v 51.2 c 0.001,4.712 -3.82,8.533 -8.533,8.533 z"
     id="path479" /><path
     style="fill:#844a8f"
     d="m 234.45892,3361.175 h -42.667 v -42.667 c 0,-4.713 3.821,-8.533 8.533,-8.533 h -17.067 c -4.713,0 -8.533,3.821 -8.533,8.533 v 34.134 17.067 c 0,4.713 3.821,8.533 8.533,8.533 h 17.068 34.133 c 4.713,0 8.533,-3.821 8.533,-8.533 v -17.067 c 0.001,4.713 -3.82,8.533 -8.533,8.533 z"
     id="path480" /><path
     style="fill:#cccccc"
     d="m 234.45892,3446.511 h -51.2 c -4.713,0 -8.533,-3.821 -8.533,-8.533 v -51.2 c 0,-4.713 3.821,-8.533 8.533,-8.533 h 51.2 c 4.713,0 8.533,3.821 8.533,8.533 v 51.2 c 0.001,4.712 -3.82,8.533 -8.533,8.533 z"
     id="path481" /><path
     style="fill:#b3b3b3"
     d="m 234.45892,3429.444 h -42.667 v -42.667 c 0,-4.713 3.821,-8.533 8.533,-8.533 h -17.067 c -4.713,0 -8.533,3.821 -8.533,8.533 v 34.134 17.067 c 0,4.713 3.821,8.533 8.533,8.533 h 17.068 34.133 c 4.713,0 8.533,-3.821 8.533,-8.533 v -17.067 c 0.001,4.713 -3.82,8.533 -8.533,8.533 z"
     id="path482" /><path
     style="fill:#cccccc"
     d="m 234.45892,3514.78 h -51.2 c -4.713,0 -8.533,-3.821 -8.533,-8.533 v -51.2 c 0,-4.713 3.821,-8.533 8.533,-8.533 h 51.2 c 4.713,0 8.533,3.821 8.533,8.533 v 51.2 c 0.001,4.712 -3.82,8.533 -8.533,8.533 z"
     id="path483" /><path
     style="fill:#b3b3b3"
     d="m 234.45892,3497.713 h -42.667 v -42.667 c 0,-4.713 3.821,-8.533 8.533,-8.533 h -17.067 c -4.713,0 -8.533,3.821 -8.533,8.533 v 34.134 17.067 c 0,4.713 3.821,8.533 8.533,8.533 h 17.068 34.133 c 4.713,0 8.533,-3.821 8.533,-8.533 v -17.067 c 0.001,4.713 -3.82,8.533 -8.533,8.533 z"
     id="path484" /><path
     style="fill:#cccccc"
     d="m 302.72792,3036.897 h -51.2 c -4.713,0 -8.533,-3.821 -8.533,-8.533 v -51.2 c 0,-4.713 3.821,-8.533 8.533,-8.533 h 51.2 c 4.713,0 8.533,3.821 8.533,8.533 v 51.2 c 10e-4,4.712 -3.82,8.533 -8.533,8.533 z"
     id="path485" /><path
     style="fill:#b3b3b3"
     d="m 302.72792,3019.83 h -42.667 v -42.667 c 0,-4.713 3.821,-8.533 8.533,-8.533 h -17.067 c -4.713,0 -8.533,3.821 -8.533,8.533 v 34.134 17.067 c 0,4.713 3.821,8.533 8.533,8.533 h 17.068 34.133 c 4.713,0 8.533,-3.821 8.533,-8.533 v -17.067 c 10e-4,4.713 -3.82,8.533 -8.533,8.533 z"
     id="path486" /><path
     style="fill:#cccccc"
     d="m 302.72792,3105.166 h -51.2 c -4.713,0 -8.533,-3.821 -8.533,-8.533 v -51.2 c 0,-4.713 3.821,-8.533 8.533,-8.533 h 51.2 c 4.713,0 8.533,3.821 8.533,8.533 v 51.2 c 10e-4,4.712 -3.82,8.533 -8.533,8.533 z"
     id="path487" /><path
     style="fill:#b3b3b3"
     d="m 302.72792,3088.099 h -42.667 v -42.667 c 0,-4.713 3.821,-8.533 8.533,-8.533 h -17.067 c -4.713,0 -8.533,3.821 -8.533,8.533 v 34.134 17.067 c 0,4.713 3.821,8.533 8.533,8.533 h 17.068 34.133 c 4.713,0 8.533,-3.821 8.533,-8.533 v -17.067 c 10e-4,4.713 -3.82,8.533 -8.533,8.533 z"
     id="path488" /><path
     style="fill:#cccccc"
     d="m 302.72792,3173.435 h -51.2 c -4.713,0 -8.533,-3.821 -8.533,-8.533 v -51.2 c 0,-4.713 3.821,-8.533 8.533,-8.533 h 51.2 c 4.713,0 8.533,3.821 8.533,8.533 v 51.2 c 10e-4,4.712 -3.82,8.533 -8.533,8.533 z"
     id="path489" /><path
     style="fill:#b3b3b3"
     d="m 302.72792,3156.368 h -42.667 v -42.667 c 0,-4.713 3.821,-8.533 8.533,-8.533 h -17.067 c -4.713,0 -8.533,3.821 -8.533,8.533 v 34.134 17.067 c 0,4.713 3.821,8.533 8.533,8.533 h 17.068 34.133 c 4.713,0 8.533,-3.821 8.533,-8.533 v -17.067 c 10e-4,4.713 -3.82,8.533 -8.533,8.533 z"
     id="path490" /><path
     style="fill:#cccccc"
     d="m 302.72792,3241.704 h -51.2 c -4.713,0 -8.533,-3.821 -8.533,-8.533 v -51.2 c 0,-4.713 3.821,-8.533 8.533,-8.533 h 51.2 c 4.713,0 8.533,3.821 8.533,8.533 v 51.2 c 10e-4,4.712 -3.82,8.533 -8.533,8.533 z"
     id="path491" /><path
     style="fill:#b3b3b3"
     d="m 302.72792,3224.637 h -42.667 v -42.667 c 0,-4.713 3.821,-8.533 8.533,-8.533 h -17.067 c -4.713,0 -8.533,3.821 -8.533,8.533 v 34.134 17.067 c 0,4.713 3.821,8.533 8.533,8.533 h 17.068 34.133 c 4.713,0 8.533,-3.821 8.533,-8.533 v -17.067 c 10e-4,4.713 -3.82,8.533 -8.533,8.533 z"
     id="path492" /><path
     style="fill:#b169bf"
     d="m 302.72792,3309.973 h -51.2 c -4.713,0 -8.533,-3.821 -8.533,-8.533 v -51.2 c 0,-4.713 3.821,-8.533 8.533,-8.533 h 51.2 c 4.713,0 8.533,3.821 8.533,8.533 v 51.2 c 10e-4,4.712 -3.82,8.533 -8.533,8.533 z"
     id="path493" /><path
     style="fill:#844a8f"
     d="m 302.72792,3292.906 h -42.667 v -42.667 c 0,-4.713 3.821,-8.533 8.533,-8.533 h -17.067 c -4.713,0 -8.533,3.821 -8.533,8.533 v 34.134 17.067 c 0,4.713 3.821,8.533 8.533,8.533 h 17.068 34.133 c 4.713,0 8.533,-3.821 8.533,-8.533 v -17.067 c 10e-4,4.713 -3.82,8.533 -8.533,8.533 z"
     id="path494" /><path
     style="fill:#b169bf"
     d="m 302.72792,3378.242 h -51.2 c -4.713,0 -8.533,-3.821 -8.533,-8.533 v -51.2 c 0,-4.713 3.821,-8.533 8.533,-8.533 h 51.2 c 4.713,0 8.533,3.821 8.533,8.533 v 51.2 c 10e-4,4.712 -3.82,8.533 -8.533,8.533 z"
     id="path495" /><path
     style="fill:#844a8f"
     d="m 302.72792,3361.175 h -42.667 v -42.667 c 0,-4.713 3.821,-8.533 8.533,-8.533 h -17.067 c -4.713,0 -8.533,3.821 -8.533,8.533 v 34.134 17.067 c 0,4.713 3.821,8.533 8.533,8.533 h 17.068 34.133 c 4.713,0 8.533,-3.821 8.533,-8.533 v -17.067 c 10e-4,4.713 -3.82,8.533 -8.533,8.533 z"
     id="path496" /><path
     style="fill:#cccccc"
     d="m 302.72792,3446.511 h -51.2 c -4.713,0 -8.533,-3.821 -8.533,-8.533 v -51.2 c 0,-4.713 3.821,-8.533 8.533,-8.533 h 51.2 c 4.713,0 8.533,3.821 8.533,8.533 v 51.2 c 10e-4,4.712 -3.82,8.533 -8.533,8.533 z"
     id="path497" /><path
     style="fill:#b3b3b3"
     d="m 302.72792,3429.444 h -42.667 v -42.667 c 0,-4.713 3.821,-8.533 8.533,-8.533 h -17.067 c -4.713,0 -8.533,3.821 -8.533,8.533 v 34.134 17.067 c 0,4.713 3.821,8.533 8.533,8.533 h 17.068 34.133 c 4.713,0 8.533,-3.821 8.533,-8.533 v -17.067 c 10e-4,4.713 -3.82,8.533 -8.533,8.533 z"
     id="path498" /><path
     style="fill:#cccccc"
     d="m 302.72792,3514.78 h -51.2 c -4.713,0 -8.533,-3.821 -8.533,-8.533 v -51.2 c 0,-4.713 3.821,-8.533 8.533,-8.533 h 51.2 c 4.713,0 8.533,3.821 8.533,8.533 v 51.2 c 10e-4,4.712 -3.82,8.533 -8.533,8.533 z"
     id="path499" /><path
     style="fill:#b3b3b3"
     d="m 302.72792,3497.713 h -42.667 v -42.667 c 0,-4.713 3.821,-8.533 8.533,-8.533 h -17.067 c -4.713,0 -8.533,3.821 -8.533,8.533 v 34.134 17.067 c 0,4.713 3.821,8.533 8.533,8.533 h 17.068 34.133 c 4.713,0 8.533,-3.821 8.533,-8.533 v -17.067 c 10e-4,4.713 -3.82,8.533 -8.533,8.533 z"
     id="path500" /><path
     style="fill:#cccccc"
     d="m 370.99692,3036.897 h -51.2 c -4.713,0 -8.533,-3.821 -8.533,-8.533 v -51.2 c 0,-4.713 3.821,-8.533 8.533,-8.533 h 51.2 c 4.713,0 8.533,3.821 8.533,8.533 v 51.2 c 10e-4,4.712 -3.82,8.533 -8.533,8.533 z"
     id="path501" /><path
     style="fill:#b3b3b3"
     d="m 370.99692,3019.83 h -42.667 v -42.667 c 0,-4.713 3.821,-8.533 8.533,-8.533 h -17.067 c -4.713,0 -8.533,3.821 -8.533,8.533 v 34.134 17.067 c 0,4.713 3.821,8.533 8.533,8.533 h 17.068 34.133 c 4.713,0 8.533,-3.821 8.533,-8.533 v -17.067 c 10e-4,4.713 -3.82,8.533 -8.533,8.533 z"
     id="path502" /><path
     style="fill:#cccccc"
     d="m 370.99692,3105.166 h -51.2 c -4.713,0 -8.533,-3.821 -8.533,-8.533 v -51.2 c 0,-4.713 3.821,-8.533 8.533,-8.533 h 51.2 c 4.713,0 8.533,3.821 8.533,8.533 v 51.2 c 10e-4,4.712 -3.82,8.533 -8.533,8.533 z"
     id="path503" /><path
     style="fill:#b3b3b3"
     d="m 370.99692,3088.099 h -42.667 v -42.667 c 0,-4.713 3.821,-8.533 8.533,-8.533 h -17.067 c -4.713,0 -8.533,3.821 -8.533,8.533 v 34.134 17.067 c 0,4.713 3.821,8.533 8.533,8.533 h 17.068 34.133 c 4.713,0 8.533,-3.821 8.533,-8.533 v -17.067 c 10e-4,4.713 -3.82,8.533 -8.533,8.533 z"
     id="path504" /><path
     style="fill:#cccccc"
     d="m 370.99692,3173.435 h -51.2 c -4.713,0 -8.533,-3.821 -8.533,-8.533 v -51.2 c 0,-4.713 3.821,-8.533 8.533,-8.533 h 51.2 c 4.713,0 8.533,3.821 8.533,8.533 v 51.2 c 10e-4,4.712 -3.82,8.533 -8.533,8.533 z"
     id="path505" /><path
     style="fill:#b3b3b3"
     d="m 370.99692,3156.368 h -42.667 v -42.667 c 0,-4.713 3.821,-8.533 8.533,-8.533 h -17.067 c -4.713,0 -8.533,3.821 -8.533,8.533 v 34.134 17.067 c 0,4.713 3.821,8.533 8.533,8.533 h 17.068 34.133 c 4.713,0 8.533,-3.821 8.533,-8.533 v -17.067 c 10e-4,4.713 -3.82,8.533 -8.533,8.533 z"
     id="path506" /><path
     style="fill:#cccccc"
     d="m 370.99692,3241.704 h -51.2 c -4.713,0 -8.533,-3.821 -8.533,-8.533 v -51.2 c 0,-4.713 3.821,-8.533 8.533,-8.533 h 51.2 c 4.713,0 8.533,3.821 8.533,8.533 v 51.2 c 10e-4,4.712 -3.82,8.533 -8.533,8.533 z"
     id="path507" /><path
     style="fill:#b3b3b3"
     d="m 370.99692,3224.637 h -42.667 v -42.667 c 0,-4.713 3.821,-8.533 8.533,-8.533 h -17.067 c -4.713,0 -8.533,3.821 -8.533,8.533 v 34.134 17.067 c 0,4.713 3.821,8.533 8.533,8.533 h 17.068 34.133 c 4.713,0 8.533,-3.821 8.533,-8.533 v -17.067 c 10e-4,4.713 -3.82,8.533 -8.533,8.533 z"
     id="path508" /><path
     style="fill:#b169bf"
     d="m 370.99692,3309.973 h -51.2 c -4.713,0 -8.533,-3.821 -8.533,-8.533 v -51.2 c 0,-4.713 3.821,-8.533 8.533,-8.533 h 51.2 c 4.713,0 8.533,3.821 8.533,8.533 v 51.2 c 10e-4,4.712 -3.82,8.533 -8.533,8.533 z"
     id="path509" /><path
     style="fill:#844a8f"
     d="m 370.99692,3292.906 h -42.667 v -42.667 c 0,-4.713 3.821,-8.533 8.533,-8.533 h -17.067 c -4.713,0 -8.533,3.821 -8.533,8.533 v 34.134 17.067 c 0,4.713 3.821,8.533 8.533,8.533 h 17.068 34.133 c 4.713,0 8.533,-3.821 8.533,-8.533 v -17.067 c 10e-4,4.713 -3.82,8.533 -8.533,8.533 z"
     id="path510" /><path
     style="fill:#b169bf"
     d="m 370.99692,3378.242 h -51.2 c -4.713,0 -8.533,-3.821 -8.533,-8.533 v -51.2 c 0,-4.713 3.821,-8.533 8.533,-8.533 h 51.2 c 4.713,0 8.533,3.821 8.533,8.533 v 51.2 c 10e-4,4.712 -3.82,8.533 -8.533,8.533 z"
     id="path511" /><path
     style="fill:#844a8f"
     d="m 370.99692,3361.175 h -42.667 v -42.667 c 0,-4.713 3.821,-8.533 8.533,-8.533 h -17.067 c -4.713,0 -8.533,3.821 -8.533,8.533 v 34.134 17.067 c 0,4.713 3.821,8.533 8.533,8.533 h 17.068 34.133 c 4.713,0 8.533,-3.821 8.533,-8.533 v -17.067 c 10e-4,4.713 -3.82,8.533 -8.533,8.533 z"
     id="path512" /><path
     style="fill:#cccccc"
     d="m 370.99692,3446.511 h -51.2 c -4.713,0 -8.533,-3.821 -8.533,-8.533 v -51.2 c 0,-4.713 3.821,-8.533 8.533,-8.533 h 51.2 c 4.713,0 8.533,3.821 8.533,8.533 v 51.2 c 10e-4,4.712 -3.82,8.533 -8.533,8.533 z"
     id="path513" /><path
     style="fill:#b3b3b3"
     d="m 370.99692,3429.444 h -42.667 v -42.667 c 0,-4.713 3.821,-8.533 8.533,-8.533 h -17.067 c -4.713,0 -8.533,3.821 -8.533,8.533 v 34.134 17.067 c 0,4.713 3.821,8.533 8.533,8.533 h 17.068 34.133 c 4.713,0 8.533,-3.821 8.533,-8.533 v -17.067 c 10e-4,4.713 -3.82,8.533 -8.533,8.533 z"
     id="path514" /><path
     style="fill:#cccccc"
     d="m 370.99692,3514.78 h -51.2 c -4.713,0 -8.533,-3.821 -8.533,-8.533 v -51.2 c 0,-4.713 3.821,-8.533 8.533,-8.533 h 51.2 c 4.713,0 8.533,3.821 8.533,8.533 v 51.2 c 10e-4,4.712 -3.82,8.533 -8.533,8.533 z"
     id="path515" /><path
     style="fill:#b3b3b3"
     d="m 370.99692,3497.713 h -42.667 v -42.667 c 0,-4.713 3.821,-8.533 8.533,-8.533 h -17.067 c -4.713,0 -8.533,3.821 -8.533,8.533 v 34.134 17.067 c 0,4.713 3.821,8.533 8.533,8.533 h 17.068 34.133 c 4.713,0 8.533,-3.821 8.533,-8.533 v -17.067 c 10e-4,4.713 -3.82,8.533 -8.533,8.533 z"
     id="path516" /></g></svg>
