<?xml version="1.0" encoding="UTF-8"?><svg xmlns="http://www.w3.org/2000/svg" xmlns:xlink="http://www.w3.org/1999/xlink" fill-opacity="1" color-rendering="auto" color-interpolation="auto" text-rendering="auto" stroke="black" stroke-linecap="square" width="1353" stroke-miterlimit="10" shape-rendering="auto" stroke-opacity="1" fill="black" stroke-dasharray="none" font-weight="normal" stroke-width="1" height="198" font-family="'Dialog'" font-style="normal" stroke-linejoin="miter" font-size="12px" stroke-dashoffset="0" image-rendering="auto">
  <!--Generated by ySVG 2.6-->
  <defs id="genericDefs"/>
  <g>
    <defs id="defs1">
      <clipPath clipPathUnits="userSpaceOnUse" id="clipPath1">
        <path d="M0 0 L1353 0 L1353 198 L0 198 L0 0 Z"/>
      </clipPath>
      <clipPath clipPathUnits="userSpaceOnUse" id="clipPath2">
        <path d="M96 256 L1449 256 L1449 454 L96 454 L96 256 Z"/>
      </clipPath>
    </defs>
    <g fill="white" text-rendering="geometricPrecision" shape-rendering="geometricPrecision" transform="translate(-96,-256)" stroke="white">
      <rect x="96" width="1353" height="198" y="256" clip-path="url(#clipPath2)" stroke="none"/>
    </g>
    <g fill="rgb(231,242,250)" text-rendering="geometricPrecision" shape-rendering="geometricPrecision" transform="matrix(1,0,0,1,-96,-256)" stroke="rgb(231,242,250)">
      <rect x="111" width="171" height="40" y="271" clip-path="url(#clipPath2)" stroke="none"/>
    </g>
    <g text-rendering="geometricPrecision" stroke-miterlimit="1.45" shape-rendering="geometricPrecision" transform="matrix(1,0,0,1,-96,-256)" stroke-linecap="butt">
      <rect fill="none" x="111" width="171" height="40" y="271" clip-path="url(#clipPath2)"/>
      <text x="120.653" font-size="16px" y="295.8799" clip-path="url(#clipPath2)" font-family="'Lato'" stroke="none" xml:space="preserve">Shuffled list of shards</text>
    </g>
    <g fill="rgb(231,242,250)" text-rendering="geometricPrecision" shape-rendering="geometricPrecision" transform="matrix(1,0,0,1,-96,-256)" stroke="rgb(231,242,250)">
      <rect x="305" width="254" height="40" y="271" clip-path="url(#clipPath2)" stroke="none"/>
    </g>
    <g text-rendering="geometricPrecision" stroke-miterlimit="1.45" shape-rendering="geometricPrecision" transform="matrix(1,0,0,1,-96,-256)" stroke-linecap="butt">
      <rect fill="none" x="305" width="254" height="40" y="271" clip-path="url(#clipPath2)"/>
      <text x="366.0608" font-size="16px" y="287.88" clip-path="url(#clipPath2)" font-family="'Lato'" stroke="none" xml:space="preserve">Data loader thread</text>
      <text x="312.8175" font-size="16px" y="303.8798" clip-path="url(#clipPath2)" font-family="'Lato'" stroke="none" xml:space="preserve">loads data sequntially from shards</text>
    </g>
    <g fill="rgb(231,242,250)" text-rendering="geometricPrecision" shape-rendering="geometricPrecision" transform="matrix(1,0,0,1,-96,-256)" stroke="rgb(231,242,250)">
      <rect x="835" width="196" height="40" y="335" clip-path="url(#clipPath2)" stroke="none"/>
    </g>
    <g text-rendering="geometricPrecision" stroke-miterlimit="1.45" shape-rendering="geometricPrecision" transform="matrix(1,0,0,1,-96,-256)" stroke-linecap="butt">
      <rect fill="none" x="835" width="196" height="40" y="335" clip-path="url(#clipPath2)"/>
      <text x="846.1291" font-size="16px" y="351.88" clip-path="url(#clipPath2)" font-family="'Lato'" stroke="none" xml:space="preserve">Data loader collects data</text>
      <text x="854.985" font-size="16px" y="367.8798" clip-path="url(#clipPath2)" font-family="'Lato'" stroke="none" xml:space="preserve">from different threads</text>
    </g>
    <g fill="rgb(231,242,250)" text-rendering="geometricPrecision" shape-rendering="geometricPrecision" transform="matrix(1,0,0,1,-96,-256)" stroke="rgb(231,242,250)">
      <rect x="1054" width="178.3333" height="40" y="335" clip-path="url(#clipPath2)" stroke="none"/>
    </g>
    <g text-rendering="geometricPrecision" stroke-miterlimit="1.45" shape-rendering="geometricPrecision" transform="matrix(1,0,0,1,-96,-256)" stroke-linecap="butt">
      <rect fill="none" x="1054" width="178.3333" height="40" y="335" clip-path="url(#clipPath2)"/>
      <text x="1067.6516" font-size="16px" y="359.8799" clip-path="url(#clipPath2)" font-family="'Lato'" stroke="none" xml:space="preserve">Data is shuffled again</text>
    </g>
    <g fill="rgb(231,242,250)" text-rendering="geometricPrecision" shape-rendering="geometricPrecision" transform="matrix(1,0,0,1,-96,-256)" stroke="rgb(231,242,250)">
      <rect x="582" width="230" height="40" y="271" clip-path="url(#clipPath2)" stroke="none"/>
    </g>
    <g text-rendering="geometricPrecision" stroke-miterlimit="1.45" shape-rendering="geometricPrecision" transform="matrix(1,0,0,1,-96,-256)" stroke-linecap="butt">
      <rect fill="none" x="582" width="230" height="40" y="271" clip-path="url(#clipPath2)"/>
      <text x="613.6931" font-size="16px" y="295.8799" clip-path="url(#clipPath2)" font-family="'Lato'" stroke="none" xml:space="preserve">Data is shuffled in RAM</text>
    </g>
    <g fill="rgb(231,242,250)" text-rendering="geometricPrecision" shape-rendering="geometricPrecision" transform="matrix(1,0,0,1,-96,-256)" stroke="rgb(231,242,250)">
      <rect x="1255.3333" width="178.3333" height="40" y="335" clip-path="url(#clipPath2)" stroke="none"/>
    </g>
    <g text-rendering="geometricPrecision" stroke-miterlimit="1.45" shape-rendering="geometricPrecision" transform="matrix(1,0,0,1,-96,-256)" stroke-linecap="butt">
      <rect fill="none" x="1255.3333" width="178.3333" height="40" y="335" clip-path="url(#clipPath2)"/>
      <text x="1289.8047" font-size="16px" y="351.88" clip-path="url(#clipPath2)" font-family="'Lato'" stroke="none" xml:space="preserve">Data is batched</text>
      <text x="1277.4288" font-size="16px" y="367.8798" clip-path="url(#clipPath2)" font-family="'Lato'" stroke="none" xml:space="preserve">and given to model</text>
    </g>
    <g fill="rgb(231,242,250)" text-rendering="geometricPrecision" shape-rendering="geometricPrecision" transform="matrix(1,0,0,1,-96,-256)" stroke="rgb(231,242,250)">
      <rect x="111" width="171" height="40" y="335" clip-path="url(#clipPath2)" stroke="none"/>
    </g>
    <g text-rendering="geometricPrecision" stroke-miterlimit="1.45" shape-rendering="geometricPrecision" transform="matrix(1,0,0,1,-96,-256)" stroke-linecap="butt">
      <rect fill="none" x="111" width="171" height="40" y="335" clip-path="url(#clipPath2)"/>
      <text x="120.653" font-size="16px" y="359.8799" clip-path="url(#clipPath2)" font-family="'Lato'" stroke="none" xml:space="preserve">Shuffled list of shards</text>
    </g>
    <g fill="rgb(231,242,250)" text-rendering="geometricPrecision" shape-rendering="geometricPrecision" transform="matrix(1,0,0,1,-96,-256)" stroke="rgb(231,242,250)">
      <rect x="305" width="254" height="40" y="335" clip-path="url(#clipPath2)" stroke="none"/>
    </g>
    <g text-rendering="geometricPrecision" stroke-miterlimit="1.45" shape-rendering="geometricPrecision" transform="matrix(1,0,0,1,-96,-256)" stroke-linecap="butt">
      <rect fill="none" x="305" width="254" height="40" y="335" clip-path="url(#clipPath2)"/>
      <text x="366.0608" font-size="16px" y="351.88" clip-path="url(#clipPath2)" font-family="'Lato'" stroke="none" xml:space="preserve">Data loader thread</text>
      <text x="312.8175" font-size="16px" y="367.8798" clip-path="url(#clipPath2)" font-family="'Lato'" stroke="none" xml:space="preserve">loads data sequntially from shards</text>
    </g>
    <g fill="rgb(231,242,250)" text-rendering="geometricPrecision" shape-rendering="geometricPrecision" transform="matrix(1,0,0,1,-96,-256)" stroke="rgb(231,242,250)">
      <rect x="582" width="230" height="40" y="335" clip-path="url(#clipPath2)" stroke="none"/>
    </g>
    <g text-rendering="geometricPrecision" stroke-miterlimit="1.45" shape-rendering="geometricPrecision" transform="matrix(1,0,0,1,-96,-256)" stroke-linecap="butt">
      <rect fill="none" x="582" width="230" height="40" y="335" clip-path="url(#clipPath2)"/>
      <text x="613.6931" font-size="16px" y="359.8799" clip-path="url(#clipPath2)" font-family="'Lato'" stroke="none" xml:space="preserve">Data is shuffled in RAM</text>
    </g>
    <g fill="rgb(231,242,250)" text-rendering="geometricPrecision" shape-rendering="geometricPrecision" transform="matrix(1,0,0,1,-96,-256)" stroke="rgb(231,242,250)">
      <rect x="111" width="171" height="40" y="399" clip-path="url(#clipPath2)" stroke="none"/>
    </g>
    <g text-rendering="geometricPrecision" stroke-miterlimit="1.45" shape-rendering="geometricPrecision" transform="matrix(1,0,0,1,-96,-256)" stroke-linecap="butt">
      <rect fill="none" x="111" width="171" height="40" y="399" clip-path="url(#clipPath2)"/>
      <text x="120.653" font-size="16px" y="423.8799" clip-path="url(#clipPath2)" font-family="'Lato'" stroke="none" xml:space="preserve">Shuffled list of shards</text>
    </g>
    <g fill="rgb(231,242,250)" text-rendering="geometricPrecision" shape-rendering="geometricPrecision" transform="matrix(1,0,0,1,-96,-256)" stroke="rgb(231,242,250)">
      <rect x="305" width="254" height="40" y="399" clip-path="url(#clipPath2)" stroke="none"/>
    </g>
    <g text-rendering="geometricPrecision" stroke-miterlimit="1.45" shape-rendering="geometricPrecision" transform="matrix(1,0,0,1,-96,-256)" stroke-linecap="butt">
      <rect fill="none" x="305" width="254" height="40" y="399" clip-path="url(#clipPath2)"/>
      <text x="366.0608" font-size="16px" y="415.88" clip-path="url(#clipPath2)" font-family="'Lato'" stroke="none" xml:space="preserve">Data loader thread</text>
      <text x="312.8175" font-size="16px" y="431.8798" clip-path="url(#clipPath2)" font-family="'Lato'" stroke="none" xml:space="preserve">loads data sequntially from shards</text>
    </g>
    <g fill="rgb(231,242,250)" text-rendering="geometricPrecision" shape-rendering="geometricPrecision" transform="matrix(1,0,0,1,-96,-256)" stroke="rgb(231,242,250)">
      <rect x="582" width="230" height="40" y="399" clip-path="url(#clipPath2)" stroke="none"/>
    </g>
    <g text-rendering="geometricPrecision" stroke-miterlimit="1.45" shape-rendering="geometricPrecision" transform="matrix(1,0,0,1,-96,-256)" stroke-linecap="butt">
      <rect fill="none" x="582" width="230" height="40" y="399" clip-path="url(#clipPath2)"/>
      <text x="613.6931" font-size="16px" y="423.8799" clip-path="url(#clipPath2)" font-family="'Lato'" stroke="none" xml:space="preserve">Data is shuffled in RAM</text>
      <path fill="none" d="M282 291 L297 291" clip-path="url(#clipPath2)"/>
      <path d="M305 291 L293 286 L296 291 L293 296 Z" clip-path="url(#clipPath2)" stroke="none"/>
      <path fill="none" d="M1031 355 L1046 355" clip-path="url(#clipPath2)"/>
      <path d="M1054 355 L1042 350 L1045 355 L1042 360 Z" clip-path="url(#clipPath2)" stroke="none"/>
      <path fill="none" d="M559 291 L574 291" clip-path="url(#clipPath2)"/>
      <path d="M582 291 L570 286 L573 291 L570 296 Z" clip-path="url(#clipPath2)" stroke="none"/>
      <path fill="none" d="M812 291 L888.1158 331.2596" clip-path="url(#clipPath2)"/>
      <path d="M895.1875 335 L886.9177 324.9695 L887.2318 330.792 L882.2421 333.8092 Z" clip-path="url(#clipPath2)" stroke="none"/>
      <path fill="none" d="M1232.3334 355 L1247.3334 355" clip-path="url(#clipPath2)"/>
      <path d="M1255.3334 355 L1243.3334 350 L1246.3334 355 L1243.3334 360 Z" clip-path="url(#clipPath2)" stroke="none"/>
      <path fill="none" d="M282 355 L297 355" clip-path="url(#clipPath2)"/>
      <path d="M305 355 L293 350 L296 355 L293 360 Z" clip-path="url(#clipPath2)" stroke="none"/>
      <path fill="none" d="M559 355 L574 355" clip-path="url(#clipPath2)"/>
      <path d="M582 355 L570 350 L573 355 L570 360 Z" clip-path="url(#clipPath2)" stroke="none"/>
      <path fill="none" d="M812 355 L827 355" clip-path="url(#clipPath2)"/>
      <path d="M835 355 L823 350 L826 355 L823 360 Z" clip-path="url(#clipPath2)" stroke="none"/>
      <path fill="none" d="M282 419 L297 419" clip-path="url(#clipPath2)"/>
      <path d="M305 419 L293 414 L296 419 L293 424 Z" clip-path="url(#clipPath2)" stroke="none"/>
      <path fill="none" d="M559 419 L574 419" clip-path="url(#clipPath2)"/>
      <path d="M582 419 L570 414 L573 419 L570 424 Z" clip-path="url(#clipPath2)" stroke="none"/>
      <path fill="none" d="M812 419 L888.1158 378.7404" clip-path="url(#clipPath2)"/>
      <path d="M895.1875 375 L882.2421 376.1908 L887.2318 379.208 L886.9177 385.0305 Z" clip-path="url(#clipPath2)" stroke="none"/>
    </g>
  </g>
</svg>
